<svg xmlns="http://www.w3.org/2000/svg" version="1.1" xmlns:xlink="http://www.w3.org/1999/xlink" xmlns:svgjs="http://svgjs.dev/svgjs" width="150" height="150" viewBox="0 0 2000 1999"><g transform="matrix(1,0,0,1,-0.431486880466764,-0.4312711370263287)"><svg viewBox="0 0 343 343" data-background-color="#ffffff" preserveAspectRatio="xMidYMid meet" height="1999" width="2000" xmlns="http://www.w3.org/2000/svg" xmlns:xlink="http://www.w3.org/1999/xlink"><g id="tight-bounds" transform="matrix(1,0,0,1,0.0740000000000407,0.07400000000001228)"><svg viewBox="0 0 342.85155851775386 342.85155851775386" height="342.85155851775386" width="342.85155851775386"><g><svg></svg></g><g><svg viewBox="0 0 342.85155851775386 342.85155851775386" height="342.85155851775386" width="342.85155851775386"><g><path d="M0 171.426c0-94.676 76.75-171.426 171.426-171.426 94.676 0 171.426 76.75 171.426 171.426 0 94.676-76.75 171.426-171.426 171.426-94.676 0-171.426-76.75-171.426-171.426zM171.426 340.445c93.347 0 169.02-75.673 169.019-169.019 0-93.347-75.673-169.02-169.019-169.02-93.347 0-169.02 75.673-169.02 169.02 0 93.347 75.673 169.02 169.02 169.019z" data-fill-palette-color="tertiary" fill="#010c80" stroke="transparent"></path><ellipse rx="164.56874808852186" ry="164.56874808852186" cx="171.42577925887693" cy="171.42577925887693" fill="#010c80" stroke="transparent" stroke-width="0" fill-opacity="1" data-fill-palette-color="tertiary"></ellipse></g><g transform="matrix(1,0,0,1,64.84655864529837,109.35836018796172)"><svg viewBox="0 0 213.1584412271571 124.13483814183043" height="124.13483814183043" width="213.1584412271571"><g><svg viewBox="0 0 213.1584412271571 124.13483814183043" height="124.13483814183043" width="213.1584412271571"><g><svg viewBox="0 0 213.1584412271571 124.13483814183043" height="124.13483814183043" width="213.1584412271571"><g transform="matrix(1,0,0,1,0,74.6654851875204)"><svg viewBox="0 0 213.1584412271571 49.469352954310025" height="49.469352954310025" width="213.1584412271571"><g id="textblocktransform"><svg viewBox="0 0 213.1584412271571 49.469352954310025" height="49.469352954310025" width="213.1584412271571" id="textblock"><g><svg viewBox="0 0 213.1584412271571 26.681405160473478" height="26.681405160473478" width="213.1584412271571"><g transform="matrix(1,0,0,1,0,0)"><svg width="213.1584412271571" viewBox="2 -36 291.18 36.45" height="26.681405160473478" data-palette-color="#ffdc00"><path d="M17.95 0L17.95 0 6.15 0Q3.7 0 2.85-0.35 2-0.7 2-1.5L2-1.5 2-33.05Q2-34.35 3.1-34.93 4.2-35.5 6.9-35.5L6.9-35.5 18.15-35.5Q27.75-35.5 31.4-31.73 35.05-27.95 35.05-18 35.05-8.05 31.25-4.03 27.45 0 17.95 0ZM17.55-28.05L17.55-28.05Q16.35-28.05 15.95-27.85L15.95-27.85 15.95-7.65 17.85-7.45Q19.35-7.45 20.13-9.85 20.9-12.25 20.9-18.15 20.9-24.05 20.1-26.05 19.3-28.05 17.55-28.05ZM63.9 0L63.9 0 42.7 0Q40.25 0 39.4-0.35 38.55-0.7 38.55-1.45L38.55-1.45 38.55-33.1Q38.55-34.4 39.72-34.95 40.9-35.5 43.95-35.5L43.95-35.5 64.05-35.5Q65.1-35.5 65.1-32.02 65.1-28.55 64.65-26.73 64.2-24.9 63.45-24.9L63.45-24.9Q60.2-24.9 52.5-25.55L52.5-25.55 52.5-22.2Q59.9-22.5 62.15-22.5L62.15-22.5Q63.5-22.5 63.5-19.35 63.5-16.2 62.97-14.58 62.45-12.95 61.55-12.95L61.55-12.95 52.5-13.15 52.5-9.95Q61.2-10.6 64.5-10.6L64.5-10.6Q65.55-10.6 65.55-7.1 65.55-3.6 65.1-1.8 64.65 0 63.9 0ZM67.55-31.95L67.55-31.95Q67.55-32.55 68.85-33.38 70.15-34.2 72.52-34.85 74.9-35.5 77.7-35.5 80.5-35.5 81.8-34.7 83.1-33.9 83.2-32.95L83.2-32.95 84.95-14.75 85.65-14.75 87.2-32.5Q87.35-33.9 90.6-34.7 93.85-35.5 96.65-35.5 99.45-35.5 100.8-35.02 102.15-34.55 102.52-34.05 102.9-33.55 102.9-33.13 102.9-32.7 102.17-30.78 101.45-28.85 100.65-26.65L100.65-26.65Q98-19.65 91.7-1.55L91.7-1.55Q91.15 0 83.1 0L83.1 0Q80.6 0 79.8-0.35 79-0.7 78.7-1.55L78.7-1.55Q75.75-10.05 71.65-20.85 67.55-31.65 67.55-31.95ZM120.79 0.45L120.79 0.45Q116.64 0.45 113.67-0.33 110.69-1.1 108.19-3.1L108.19-3.1Q103.14-7.05 103.14-18.25L103.14-18.25Q103.14-22.95 104.52-26.45 105.89-29.95 108.34-32L108.34-32Q113.14-36 120.79-36L120.79-36Q124.74-36 127.67-35.3 130.59-34.6 133.19-32.75L133.19-32.75Q138.44-28.95 138.44-18.25L138.44-18.25Q138.44-8.65 133.69-4.1 128.94 0.45 120.79 0.45ZM119.14-8.13Q119.74-7.4 120.79-7.4 121.84-7.4 122.44-8.13 123.04-8.85 123.44-11.23 123.84-13.6 123.84-17.85 123.84-22.1 123.44-24.4 123.04-26.7 122.44-27.4 121.84-28.1 120.79-28.1 119.74-28.1 119.14-27.4 118.54-26.7 118.14-24.4 117.74-22.1 117.74-17.85 117.74-13.6 118.14-11.23 118.54-8.85 119.14-8.13ZM155.59-9.05L155.59-1.45Q155.59-0.8 152.54-0.4 149.49 0 146.44 0 143.39 0 142.54-0.35 141.69-0.7 141.69-1.45L141.69-1.45 141.69-33.6Q141.69-36 156.09-36L156.09-36Q164.79-36 167.59-34.8L167.59-34.8Q170.99-33.4 172.19-31L172.19-31Q173.79-27.9 173.79-23.05L173.79-23.05Q173.79-16.4 171.49-13.4L171.49-13.4Q169.84-11.2 168.19-10.55 166.54-9.9 165.47-9.63 164.39-9.35 162.79-9.2L162.79-9.2Q160.59-9 156.79-9L156.79-9 155.59-9.05ZM155.64-27.6L155.64-17.35 156.84-17.35Q157.79-17.35 158.34-17.63 158.89-17.9 159.32-19.13 159.74-20.35 159.74-22.58 159.74-24.8 159.27-25.98 158.79-27.15 158.32-27.38 157.84-27.6 157.19-27.6L157.19-27.6 155.64-27.6ZM202.49-2.1Q200.99-1 198.31-0.28 195.64 0.45 191.41 0.45 187.19 0.45 183.39-0.25 179.59-0.95 177.94-1.8 176.29-2.65 176.29-3.45L176.29-3.45Q176.29-6.25 177.09-9.28 177.89-12.3 178.99-12.3L178.99-12.3Q179.19-12.3 183.14-10.95 187.09-9.6 189.09-9.6 191.09-9.6 191.69-10.03 192.29-10.45 192.29-11.25 192.29-12.05 191.19-12.68 190.09-13.3 188.44-13.78 186.79-14.25 184.86-15.15 182.94-16.05 181.29-17.15 179.64-18.25 178.54-20.28 177.44-22.3 177.44-24.9L177.44-24.9Q177.44-36 190.69-36L190.69-36Q195.64-36 199.24-35.38 202.84-34.75 204.31-33.98 205.79-33.2 205.79-32.45L205.79-32.45Q205.79-29.85 204.56-26.85 203.34-23.85 202.19-23.85L202.19-23.85Q201.99-23.85 200.89-24.3L200.89-24.3Q197.59-25.75 195.41-25.75 193.24-25.75 192.46-25.35 191.69-24.95 191.69-24.13 191.69-23.3 192.79-22.78 193.89-22.25 195.51-21.83 197.14-21.4 199.06-20.53 200.99-19.65 202.64-18.48 204.29-17.3 205.39-15.15 206.49-13 206.49-10.15L206.49-10.15Q206.49-7.15 204.94-4.7L204.94-4.7Q203.99-3.2 202.49-2.1ZM223.69-1.2Q223.69-0.65 220.64-0.33 217.59 0 214.51 0 211.44 0 210.59-0.28 209.74-0.55 209.74-1.2L209.74-1.2 209.74-32.3Q209.74-33.4 212.64-34.48 215.54-35.55 219.14-35.55L219.14-35.55Q222.34-35.55 223.34-34.2L223.34-34.2Q223.69-33.7 223.69-33.2L223.69-33.2 223.69-1.2ZM252.73-0.38Q250.73 0.1 248.66 0.28 246.58 0.45 244.61 0.45 242.63 0.45 241.56 0.35 240.48 0.25 238.73-0.15 236.98-0.55 235.53-1.25 234.08-1.95 232.46-3.3 230.83-4.65 229.73-6.5L229.73-6.5Q227.18-10.8 227.18-17.6L227.18-17.6Q227.18-22.15 228.61-25.65 230.03-29.15 232.06-31.05 234.08-32.95 236.68-34.1L236.68-34.1Q240.88-36 245.13-36L245.13-36Q251.23-36 253.88-35L253.88-35Q255.08-34.55 256.03-33.6 256.98-32.65 256.98-30.85 256.98-29.05 256.11-26.3 255.23-23.55 253.58-23.55L253.58-23.55Q253.08-23.55 249.88-24.35 246.68-25.15 245.53-25.15L245.53-25.15Q243.78-25.15 242.56-23.2 241.33-21.25 241.33-17.65 241.33-14.05 242.41-12.05 243.48-10.05 245.23-10.05L245.23-10.05Q246.48-10.05 249.76-11.08 253.03-12.1 253.58-12.1L253.58-12.1Q255.13-12.1 256.01-9.25 256.88-6.4 256.88-4.65 256.88-2.9 255.81-1.88 254.73-0.85 252.73-0.38ZM274.43-1.55Q274.43-0.9 271.36-0.5 268.28-0.1 265.23-0.1 262.18-0.1 261.33-0.45 260.48-0.8 260.48-1.55L260.48-1.55 260.48-32.2Q260.48-33.5 263.31-34.5 266.13-35.5 269.83-35.5L269.83-35.5Q272.88-35.5 273.78-34.3L273.78-34.3Q274.43-33.45 274.43-32.75L274.43-32.75 274.43-24.5 274.83-24.5Q274.83-24.75 276.33-28.65L276.33-28.65Q279.18-36 280.48-36L280.48-36Q282.93-36 287.38-34.55L287.38-34.55Q289.53-33.85 291.08-32.52 292.63-31.2 292.63-29.6L292.63-29.6Q292.63-28.6 290.61-25.73 288.58-22.85 284.48-18.05L284.48-18.05Q285.43-17.05 286.88-15.5 288.33-13.95 290.75-10.88 293.18-7.8 293.18-6.5 293.18-5.2 290.83-3.48 288.48-1.75 285.83-0.68 283.18 0.4 281.88 0.4L281.88 0.4Q281.03 0.4 279.56-2.18 278.08-4.75 275.98-9.9L275.98-9.9 274.43-8.05 274.43-1.55Z" opacity="1" transform="matrix(1,0,0,1,0,0)" fill="#ffdc00" class="undefined-text-0" data-fill-palette-color="quaternary" id="text-0"></path></svg></g></svg></g><g transform="matrix(1,0,0,1,0,32.98024456513741)"><svg viewBox="0 0 213.1584412271571 16.48910838917261" height="16.48910838917261" width="213.1584412271571"><g transform="matrix(1,0,0,1,0,0)"><svg width="213.1584412271571" viewBox="1.51 -39.11 684.24 52.93" height="16.48910838917261" data-palette-color="#ffdc00"><path d="M26.61-21.97L26.61-21.97Q26.61-17.68 24.85-13.7 23.1-9.72 20.14-6.64 17.19-3.56 13.26-1.73 9.33 0.1 4.98 0.1L4.98 0.1 4.88 0.1Q4 0.1 3.44-0.71 2.88-1.51 2.49-2.73 2.1-3.96 1.9-5.47 1.71-6.98 1.61-8.42 1.51-9.86 1.51-11.01 1.51-12.16 1.51-12.74L1.51-12.74Q1.51-14.4 1.56-16.04 1.61-17.68 1.71-19.34L1.71-19.34Q1.71-19.87 1.78-20.92 1.86-21.97 1.95-23.29 2.05-24.61 2.2-26.05 2.34-27.49 2.51-28.74 2.69-29.98 2.86-30.93 3.03-31.88 3.27-32.23L3.27-32.23Q3.91-33.3 5.22-34.13 6.54-34.96 8.08-35.5 9.62-36.04 11.21-36.3 12.79-36.57 13.96-36.57L13.96-36.57Q17.19-36.57 19.56-35.38 21.92-34.18 23.51-32.15 25.1-30.13 25.85-27.49 26.61-24.85 26.61-21.97ZM18.41-20.56L18.41-20.56Q18.41-21.63 18.02-22.75 17.63-23.88 16.92-24.8 16.21-25.73 15.21-26.29 14.21-26.86 12.99-26.86L12.99-26.86Q11.96-26.86 10.89-26.37L10.89-26.37Q10.64-26.22 10.45-25.46 10.25-24.71 10.13-23.63 10.01-22.56 9.91-21.29 9.81-20.02 9.79-18.87 9.77-17.72 9.74-16.85 9.72-15.97 9.72-15.67L9.72-15.67Q9.72-15.19 9.72-14.23 9.72-13.28 9.79-12.35 9.86-11.43 9.96-10.74 10.06-10.06 10.3-10.06L10.3-10.06Q11.77-10.06 13.21-11.21 14.65-12.35 15.82-14.01 16.99-15.67 17.7-17.48 18.41-19.29 18.41-20.56ZM54.89-18.26L54.89-18.26Q54.21-18.21 53.72-18.38 53.23-18.55 52.74-18.75L52.74-18.75Q52.3-18.95 51.86-19.12 51.42-19.29 50.89-19.24L50.89-19.24Q49.91-19.19 49.15-18.7 48.4-18.21 47.79-17.48 47.18-16.75 46.74-15.84 46.3-14.94 46.05-14.06L46.05-14.06Q45.91-13.48 45.83-12.28 45.76-11.08 45.76-9.72L45.76-9.72Q45.71-8.3 45.71-7.03 45.71-5.76 45.61-5.03L45.61-5.03Q45.57-4.25 45.37-3.2 45.17-2.15 44.76-1.22 44.34-0.29 43.66 0.34 42.98 0.98 41.9 0.98L41.9 0.98Q41.07 0.98 40.46 0.49 39.85 0 39.44-0.81 39.02-1.61 38.75-2.69 38.49-3.76 38.34-4.88L38.34-4.88Q38.19-6.05 38.12-7.23 38.05-8.4 38.02-9.45 38-10.5 38.02-11.38 38.05-12.26 38.05-12.79L38.05-12.79Q38-14.5 37.87-16.24 37.75-17.97 37.75-19.68L37.75-19.68Q37.75-20.75 37.85-22.07 37.95-23.39 38.39-24.54 38.83-25.68 39.68-26.46 40.54-27.25 42.05-27.25L42.05-27.25Q42.88-27.25 43.47-26.71 44.05-26.17 44.42-25.39 44.78-24.61 44.98-23.73 45.17-22.85 45.22-22.12L45.22-22.12Q46.4-24.02 47.86-25.22 49.33-26.42 51.67-26.51L51.67-26.51Q52.84-26.56 53.99-26.29 55.14-26.03 56.09-25.42 57.04-24.8 57.65-23.83 58.26-22.85 58.31-21.53L58.31-21.53Q58.41-19.97 57.38-19.14 56.36-18.31 54.89-18.26ZM88.64-8.69L88.64-8.69Q88.64-7.03 87.59-5.44 86.54-3.86 84.95-2.61 83.37-1.37 81.56-0.61 79.75 0.15 78.24 0.15L78.24 0.15Q75.65 0.15 73.63-1.15 71.6-2.44 70.23-4.44 68.87-6.45 68.16-8.86 67.45-11.28 67.45-13.57L67.45-13.57Q67.45-16.02 68.13-18.8 68.82-21.58 70.21-23.93 71.6-26.27 73.72-27.83 75.85-29.39 78.78-29.39L78.78-29.39Q80.44-29.39 81.95-28.83 83.46-28.27 84.59-27.25 85.71-26.22 86.39-24.8 87.08-23.39 87.08-21.63L87.08-21.63Q87.08-19.34 86.1-17.33 85.12-15.33 83.51-13.87 81.9-12.4 79.8-11.5 77.7-10.6 75.51-10.5L75.51-10.5Q75.7-9.08 76.65-8.45 77.61-7.81 78.92-7.81L78.92-7.81Q79.9-7.81 80.83-8.3 81.76-8.79 82.63-9.4 83.51-10.01 84.37-10.5 85.22-10.99 86.1-10.99L86.1-10.99Q87.08-10.99 87.86-10.35 88.64-9.72 88.64-8.69ZM80.73-20.65L80.73-20.65Q80.73-21.29 80.39-21.97 80.05-22.66 79.31-22.66L79.31-22.66Q78.24-22.66 77.51-22.09 76.78-21.53 76.29-20.68 75.8-19.82 75.53-18.85 75.26-17.87 75.21-17.04L75.21-17.04Q75.9-17.19 76.85-17.43 77.8-17.68 78.66-18.09 79.51-18.51 80.12-19.14 80.73-19.78 80.73-20.65ZM120.49-6.88L120.49-6.88Q120.49-6.01 120.41-4.59 120.34-3.17 120-1.83 119.66-0.49 118.92 0.49 118.19 1.46 116.87 1.46L116.87 1.46Q115.07 1.46 114.09 0.29 113.11-0.88 113.16-2.64L113.16-2.64Q111.6-1.27 109.62-0.49 107.64 0.29 105.59 0.29L105.59 0.29Q104.18 0.29 102.91-0.39 101.64-1.07 100.66-2.15 99.68-3.22 99.1-4.57 98.51-5.91 98.51-7.23L98.51-7.23Q98.51-9.57 99.95-11.33 101.39-13.09 103.49-14.33 105.59-15.58 107.96-16.31 110.33-17.04 112.18-17.29L112.18-17.29Q112.18-17.53 112.21-17.72 112.23-17.92 112.23-18.16L112.23-18.16Q112.23-19.68 111.4-20.61 110.57-21.53 109.06-21.53L109.06-21.53Q107.84-21.53 106.96-21.12 106.08-20.7 105.3-20.19 104.52-19.68 103.74-19.26 102.96-18.85 101.98-18.85L101.98-18.85Q100.91-18.85 100.15-19.53 99.39-20.21 99.39-21.29L99.39-21.29Q99.39-22.9 100.34-24.22 101.3-25.54 102.74-26.44 104.18-27.34 105.86-27.86 107.55-28.37 108.96-28.37L108.96-28.37Q110.28-28.37 111.6-28.05 112.92-27.73 114.09-27.08 115.26-26.42 116.21-25.46 117.16-24.51 117.75-23.24L117.75-23.24Q118.63-21.44 119.17-19.41 119.7-17.38 120-15.26 120.29-13.13 120.39-11.01 120.49-8.89 120.49-6.88ZM112.67-8.45L112.67-8.45 112.53-11.77Q112.43-11.77 112.33-11.79 112.23-11.82 112.14-11.82L112.14-11.82Q111.5-11.82 110.55-11.5 109.6-11.18 108.72-10.62 107.84-10.06 107.23-9.38 106.62-8.69 106.62-7.96L106.62-7.96Q106.62-7.28 107.11-7.03 107.59-6.79 108.23-6.79L108.23-6.79Q109.3-6.79 110.52-7.35 111.74-7.91 112.67-8.45ZM162.19-16.11L162.19-16.11Q162.19-15.19 162.19-13.6 162.19-12.01 162.12-10.16 162.05-8.3 161.8-6.42 161.56-4.54 161.05-3.03 160.53-1.51 159.75-0.54 158.97 0.44 157.75 0.44L157.75 0.44Q156.68 0.44 156.11-0.46 155.55-1.37 155.31-2.59 155.06-3.81 155.04-5.08 155.02-6.35 155.02-7.08L155.02-7.08Q155.02-9.28 155.16-11.38 155.31-13.48 155.31-15.67L155.31-15.67Q155.31-15.92 155.31-16.55 155.31-17.19 155.21-17.82 155.11-18.46 154.89-18.95 154.67-19.43 154.23-19.43L154.23-19.43Q153.36-19.43 152.82-18.53 152.28-17.63 151.94-16.41 151.6-15.19 151.45-13.99 151.3-12.79 151.26-12.21L151.26-12.21Q151.16-11.57 151.08-10.3 151.01-9.03 150.89-7.52 150.77-6.01 150.5-4.42 150.23-2.83 149.82-1.54 149.4-0.24 148.77 0.59 148.13 1.42 147.2 1.42L147.2 1.42Q146.03 1.42 145.4 0.39 144.76-0.63 144.47-2 144.18-3.37 144.1-4.79 144.03-6.2 144.03-6.98L144.03-6.98Q144.03-7.81 144.05-8.59 144.08-9.38 144.08-10.21L144.08-10.21Q144.08-10.55 144.08-11.33 144.08-12.11 144.05-13.06 144.03-14.01 143.96-15.04 143.88-16.06 143.74-16.92 143.59-17.77 143.3-18.31 143-18.85 142.61-18.85L142.61-18.85Q141.98-18.85 141.44-18.04 140.9-17.24 140.51-16.14 140.12-15.04 139.9-13.96 139.68-12.89 139.68-12.4L139.68-12.4 139.68-12.11Q139.68-9.77 139.98-7.52 140.27-5.27 140.27-2.93L140.27-2.93Q140.27-1.56 139.39-0.42 138.51 0.73 136.95 0.73L136.95 0.73Q135.83 0.73 135.09-0.12 134.36-0.98 133.87-2.34 133.38-3.71 133.12-5.35 132.85-6.98 132.75-8.57 132.65-10.16 132.63-11.45 132.6-12.74 132.6-13.38L132.6-13.38Q132.6-14.11 132.58-15.53 132.55-16.94 132.63-18.6 132.7-20.26 132.9-22 133.09-23.73 133.53-25.15 133.97-26.56 134.68-27.47 135.39-28.37 136.51-28.37L136.51-28.37Q137.78-28.37 138.58-27.69 139.39-27 139.39-25.63L139.39-25.63Q139.39-25.34 139.37-25.05 139.34-24.76 139.29-24.51L139.29-24.51Q139.83-25.29 140.61-26.1 141.39-26.9 142.3-27.56 143.2-28.22 144.22-28.64 145.25-29.05 146.28-29.05L146.28-29.05Q147.25-29.05 148.03-28.52 148.81-27.98 149.4-27.17 149.99-26.37 150.38-25.44 150.77-24.51 150.91-23.68L150.91-23.68Q151.4-24.56 152.11-25.46 152.82-26.37 153.65-27.05 154.48-27.73 155.48-28.17 156.48-28.61 157.55-28.61L157.55-28.61Q158.58-28.61 159.31-27.88 160.04-27.15 160.58-26 161.12-24.85 161.41-23.41 161.7-21.97 161.9-20.58 162.1-19.19 162.14-17.99 162.19-16.8 162.19-16.11ZM181.64-2.34L181.64-2.34Q181.64-1.71 181.34-1.2 181.05-0.68 180.59-0.34 180.12 0 179.56 0.2 179 0.39 178.41 0.39L178.41 0.39Q177.68 0.39 176.83 0.12 175.97-0.15 175.26-0.63 174.56-1.12 174.07-1.78 173.58-2.44 173.58-3.27L173.58-3.27Q173.58-4.59 174.7-5.25 175.82-5.91 177-5.91L177-5.91Q177.73-5.91 178.53-5.66 179.34-5.42 180.05-4.96 180.76-4.49 181.2-3.83 181.64-3.17 181.64-2.34ZM236.29-26.17L236.29-26.17Q236.29-23.54 235.14-21 234-18.46 232.09-16.43 230.19-14.4 227.75-13.11 225.31-11.82 222.72-11.67L222.72-11.67Q222.67-10.79 222.64-9.45 222.62-8.11 222.47-6.64 222.33-5.18 222.06-3.71 221.79-2.25 221.28-1.07 220.76 0.1 219.96 0.83 219.15 1.56 217.98 1.56L217.98 1.56Q216.61 1.56 215.81 0.66 215-0.24 214.59-1.51 214.17-2.78 214.03-4.17 213.88-5.57 213.83-6.54L213.83-6.54Q213.73-7.96 213.71-9.33 213.68-10.69 213.68-12.11L213.68-12.11Q213.68-12.74 213.68-14.48 213.68-16.21 213.71-18.43 213.73-20.65 213.78-23.07 213.83-25.49 213.93-27.56 214.03-29.64 214.15-31.1 214.27-32.57 214.47-32.81L214.47-32.81Q214.51-32.86 214.76-33.03 215-33.2 215.3-33.37 215.59-33.54 215.83-33.69 216.08-33.84 216.17-33.89L216.17-33.89Q218.42-35.16 221.11-36.08 223.79-37.01 226.43-37.01L226.43-37.01Q228.67-37.01 230.51-36.11 232.34-35.21 233.63-33.72 234.92-32.23 235.61-30.25 236.29-28.27 236.29-26.17ZM227.84-25.05L227.84-25.05Q227.84-26.03 227.38-26.76 226.92-27.49 225.84-27.49L225.84-27.49Q224.91-27.49 223.99-27.12 223.06-26.76 222.28-26.37L222.28-26.37Q222.42-24.66 222.55-23.05 222.67-21.44 222.57-19.73L222.57-19.73Q223.35-20.12 224.28-20.63 225.21-21.14 225.99-21.78 226.77-22.41 227.31-23.22 227.84-24.02 227.84-25.05ZM263.55-18.26L263.55-18.26Q262.86-18.21 262.37-18.38 261.89-18.55 261.4-18.75L261.4-18.75Q260.96-18.95 260.52-19.12 260.08-19.29 259.54-19.24L259.54-19.24Q258.57-19.19 257.81-18.7 257.05-18.21 256.44-17.48 255.83-16.75 255.39-15.84 254.95-14.94 254.71-14.06L254.71-14.06Q254.56-13.48 254.49-12.28 254.42-11.08 254.42-9.72L254.42-9.72Q254.37-8.3 254.37-7.03 254.37-5.76 254.27-5.03L254.27-5.03Q254.22-4.25 254.02-3.2 253.83-2.15 253.41-1.22 253-0.29 252.32 0.34 251.63 0.98 250.56 0.98L250.56 0.98Q249.73 0.98 249.12 0.49 248.51 0 248.09-0.81 247.68-1.61 247.41-2.69 247.14-3.76 246.99-4.88L246.99-4.88Q246.85-6.05 246.77-7.23 246.7-8.4 246.68-9.45 246.65-10.5 246.68-11.38 246.7-12.26 246.7-12.79L246.7-12.79Q246.65-14.5 246.53-16.24 246.41-17.97 246.41-19.68L246.41-19.68Q246.41-20.75 246.51-22.07 246.6-23.39 247.04-24.54 247.48-25.68 248.34-26.46 249.19-27.25 250.7-27.25L250.7-27.25Q251.53-27.25 252.12-26.71 252.71-26.17 253.07-25.39 253.44-24.61 253.63-23.73 253.83-22.85 253.88-22.12L253.88-22.12Q255.05-24.02 256.52-25.22 257.98-26.42 260.32-26.51L260.32-26.51Q261.5-26.56 262.64-26.29 263.79-26.03 264.74-25.42 265.69-24.8 266.31-23.83 266.92-22.85 266.96-21.53L266.96-21.53Q267.06-19.97 266.04-19.14 265.01-18.31 263.55-18.26ZM286.11 1.42L286.11 1.42Q283.62 1.42 281.77 0.1 279.91-1.22 278.64-3.27 277.37-5.32 276.74-7.84 276.1-10.35 276.1-12.79L276.1-12.79Q276.1-15.38 276.74-18.14 277.37-20.9 278.69-23.17 280.01-25.44 282.06-26.88 284.11-28.32 286.94-28.32L286.94-28.32Q289.68-28.32 291.61-26.83 293.54-25.34 294.71-23.12 295.88-20.9 296.37-18.26 296.86-15.63 296.71-13.28L296.71-13.28Q296.56-10.69 295.9-8.06 295.24-5.42 293.98-3.32 292.71-1.22 290.75 0.1 288.8 1.42 286.11 1.42ZM286.6-20.65L286.6-20.65Q285.87-20.65 285.31-19.87 284.75-19.09 284.38-17.97 284.01-16.85 283.82-15.6 283.62-14.36 283.62-13.43L283.62-13.43Q283.62-12.26 283.84-10.89 284.06-9.52 284.45-8.37 284.84-7.23 285.41-6.47 285.97-5.71 286.7-5.71L286.7-5.71Q287.48-5.71 288.04-6.45 288.6-7.18 288.95-8.3 289.29-9.42 289.43-10.77 289.58-12.11 289.58-13.28L289.58-13.28Q289.58-14.36 289.39-15.65 289.19-16.94 288.82-18.07 288.46-19.19 287.9-19.92 287.33-20.65 286.6-20.65ZM316.64-33.59L316.64-33.59Q316.64-32.91 316.25-32.35 315.86-31.79 315.27-31.4 314.69-31.01 314-30.79 313.32-30.57 312.73-30.57L312.73-30.57Q311.76-30.57 311.02-31.05 310.29-31.54 310.29-32.57L310.29-32.57Q310.29-33.3 310.66-33.86 311.02-34.42 311.59-34.79 312.15-35.16 312.81-35.35 313.47-35.55 314.1-35.55L314.1-35.55Q315.03-35.55 315.83-35.08 316.64-34.62 316.64-33.59ZM317.57-12.4L317.57-12.4Q317.57-10.11 317.45-7.3 317.32-4.49 316.86-1.66 316.4 1.17 315.42 3.71 314.44 6.25 312.68 7.96L312.68 7.96Q311.71 8.89 310.39 9.91 309.07 10.94 307.58 11.82 306.09 12.7 304.58 13.26 303.07 13.82 301.7 13.82L301.7 13.82Q300.14 13.82 299.38 12.96 298.62 12.11 298.62 10.6L298.62 10.6Q298.62 9.03 299.45 8.25 300.28 7.47 301.5 6.88 302.72 6.3 304.16 5.59 305.6 4.88 306.83 3.47 308.05 2.05 308.88-0.37 309.71-2.78 309.71-6.74L309.71-6.74Q309.71-9.23 309.61-11.62 309.51-14.01 309.32-16.5L309.32-16.5Q309.22-17.92 309.12-19.36 309.02-20.8 309.02-22.22L309.02-22.22Q309.02-23.1 309.27-24.07 309.51-25.05 310-25.85 310.49-26.66 311.24-27.17 312-27.69 313.08-27.69L313.08-27.69Q314.3-27.69 315.1-26.76 315.91-25.83 316.42-24.39 316.93-22.95 317.15-21.17 317.37-19.38 317.47-17.7 317.57-16.02 317.57-14.6 317.57-13.18 317.57-12.4ZM351.12-8.69L351.12-8.69Q351.12-7.03 350.07-5.44 349.02-3.86 347.43-2.61 345.85-1.37 344.04-0.61 342.23 0.15 340.72 0.15L340.72 0.15Q338.13 0.15 336.11-1.15 334.08-2.44 332.71-4.44 331.35-6.45 330.64-8.86 329.93-11.28 329.93-13.57L329.93-13.57Q329.93-16.02 330.61-18.8 331.3-21.58 332.69-23.93 334.08-26.27 336.2-27.83 338.33-29.39 341.26-29.39L341.26-29.39Q342.92-29.39 344.43-28.83 345.95-28.27 347.07-27.25 348.19-26.22 348.88-24.8 349.56-23.39 349.56-21.63L349.56-21.63Q349.56-19.34 348.58-17.33 347.61-15.33 345.99-13.87 344.38-12.4 342.28-11.5 340.18-10.6 337.99-10.5L337.99-10.5Q338.18-9.08 339.13-8.45 340.09-7.81 341.4-7.81L341.4-7.81Q342.38-7.81 343.31-8.3 344.24-8.79 345.12-9.4 345.99-10.01 346.85-10.5 347.7-10.99 348.58-10.99L348.58-10.99Q349.56-10.99 350.34-10.35 351.12-9.72 351.12-8.69ZM343.21-20.65L343.21-20.65Q343.21-21.29 342.87-21.97 342.53-22.66 341.8-22.66L341.8-22.66Q340.72-22.66 339.99-22.09 339.26-21.53 338.77-20.68 338.28-19.82 338.01-18.85 337.74-17.87 337.69-17.04L337.69-17.04Q338.38-17.19 339.33-17.43 340.28-17.68 341.14-18.09 341.99-18.51 342.6-19.14 343.21-19.78 343.21-20.65ZM380.33-18.75L380.33-18.75Q380.33-18.51 380.28-18.24 380.23-17.97 380.13-17.72L380.13-17.72Q379.69-16.6 378.77-15.84 377.84-15.09 376.57-15.09L376.57-15.09Q374.67-15.09 373.98-16.99L373.98-16.99Q373.88-17.24 373.88-17.55 373.88-17.87 373.84-18.21L373.84-18.21 373.84-19.63Q373.74-20.31 373.49-20.7 373.25-21.09 372.66-21.09L372.66-21.09Q371.83-21.09 371.08-20.04 370.32-18.99 369.76-17.55 369.2-16.11 368.85-14.6 368.51-13.09 368.51-12.16L368.51-12.16Q368.51-11.43 368.61-10.38 368.71-9.33 369-8.35 369.29-7.37 369.81-6.67 370.32-5.96 371.15-5.96L371.15-5.96Q371.98-5.96 372.69-6.47 373.4-6.98 374.08-7.67L374.08-7.67Q374.71-8.25 375.47-8.89 376.23-9.52 377.2-9.52L377.2-9.52Q378.43-9.52 379.13-8.64 379.84-7.76 379.84-6.64L379.84-6.64Q379.84-4.98 378.96-3.54 378.08-2.1 376.76-1.05 375.45 0 373.84 0.61 372.22 1.22 370.76 1.22L370.76 1.22Q368.12 1.22 366.29-0.1 364.46-1.42 363.34-3.44 362.21-5.47 361.73-7.86 361.24-10.25 361.24-12.4L361.24-12.4Q361.24-14.89 361.92-17.8 362.6-20.7 364.02-23.19 365.44-25.68 367.66-27.34 369.88-29 372.96-29L372.96-29Q374.86-29 376.25-28.17 377.64-27.34 378.55-26 379.45-24.66 379.91-23 380.38-21.34 380.38-19.73L380.38-19.73Q380.38-19.48 380.38-19.24 380.38-18.99 380.33-18.75ZM403.58 1.76L403.58 1.76Q400.11 1.76 398.18 0.85 396.26-0.05 395.3-1.71 394.35-3.37 394.16-5.71 393.96-8.06 393.96-10.94L393.96-10.94Q393.96-13.23 394.11-15.55 394.25-17.87 394.55-20.51L394.55-20.51Q393.86-20.51 393.47-20.48 393.08-20.46 392.84-20.46L392.84-20.46Q391.28-20.46 390.13-21.14 388.98-21.83 388.98-23.24L388.98-23.24Q388.98-24.12 389.64-24.8 390.3-25.49 391.32-25.98 392.35-26.46 393.55-26.76 394.74-27.05 395.82-27.15L395.82-27.15Q395.82-28.52 396.01-30.18 396.21-31.84 396.72-33.28 397.23-34.72 398.11-35.69 398.99-36.67 400.36-36.67L400.36-36.67Q401.14-36.67 401.75-36.21 402.36-35.74 402.75-35.03 403.14-34.33 403.34-33.45 403.53-32.57 403.53-31.74L403.53-31.74Q403.53-30.76 403.39-29.74 403.24-28.71 402.85-27.2L402.85-27.2Q403.68-27.29 403.97-27.32 404.26-27.34 404.51-27.34L404.51-27.34Q405.34-27.34 406.24-27.2 407.14-27.05 407.9-26.71 408.66-26.37 409.15-25.81 409.64-25.24 409.64-24.46L409.64-24.46Q409.64-23.58 408.93-22.9 408.22-22.22 407.14-21.73 406.07-21.24 404.85-20.97 403.63-20.7 402.55-20.61L402.55-20.61Q402.26-18.6 402.14-16.92 402.02-15.23 401.87-13.53L401.87-13.53Q401.77-12.7 401.7-11.84 401.63-10.99 401.63-10.11L401.63-10.11Q401.63-9.47 401.68-8.62 401.72-7.76 402.02-6.98 402.31-6.2 402.95-5.64 403.58-5.08 404.7-5.08L404.7-5.08Q405.39-5.08 406.12-5.2 406.85-5.32 407.58-5.32L407.58-5.32Q408.85-5.32 409.42-4.44 409.98-3.56 409.98-2.2L409.98-2.2Q409.98-1.17 409.37-0.42 408.76 0.34 407.83 0.81 406.9 1.27 405.75 1.51 404.61 1.76 403.58 1.76ZM427.17-2.34L427.17-2.34Q427.17-1.71 426.88-1.2 426.59-0.68 426.12-0.34 425.66 0 425.1 0.2 424.54 0.39 423.95 0.39L423.95 0.39Q423.22 0.39 422.36 0.12 421.51-0.15 420.8-0.63 420.09-1.12 419.6-1.78 419.12-2.44 419.12-3.27L419.12-3.27Q419.12-4.59 420.24-5.25 421.36-5.91 422.53-5.91L422.53-5.91Q423.27-5.91 424.07-5.66 424.88-5.42 425.59-4.96 426.29-4.49 426.73-3.83 427.17-3.17 427.17-2.34ZM481.83-26.17L481.83-26.17Q481.83-23.54 480.68-21 479.53-18.46 477.63-16.43 475.73-14.4 473.28-13.11 470.84-11.82 468.25-11.67L468.25-11.67Q468.21-10.79 468.18-9.45 468.16-8.11 468.01-6.64 467.86-5.18 467.6-3.71 467.33-2.25 466.81-1.07 466.3 0.1 465.5 0.83 464.69 1.56 463.52 1.56L463.52 1.56Q462.15 1.56 461.35 0.66 460.54-0.24 460.13-1.51 459.71-2.78 459.56-4.17 459.42-5.57 459.37-6.54L459.37-6.54Q459.27-7.96 459.25-9.33 459.22-10.69 459.22-12.11L459.22-12.11Q459.22-12.74 459.22-14.48 459.22-16.21 459.25-18.43 459.27-20.65 459.32-23.07 459.37-25.49 459.47-27.56 459.56-29.64 459.69-31.1 459.81-32.57 460-32.81L460-32.81Q460.05-32.86 460.3-33.03 460.54-33.2 460.83-33.37 461.13-33.54 461.37-33.69 461.61-33.84 461.71-33.89L461.71-33.89Q463.96-35.16 466.64-36.08 469.33-37.01 471.97-37.01L471.97-37.01Q474.21-37.01 476.04-36.11 477.87-35.21 479.17-33.72 480.46-32.23 481.15-30.25 481.83-28.27 481.83-26.17ZM473.38-25.05L473.38-25.05Q473.38-26.03 472.92-26.76 472.45-27.49 471.38-27.49L471.38-27.49Q470.45-27.49 469.52-27.12 468.6-26.76 467.82-26.37L467.82-26.37Q467.96-24.66 468.08-23.05 468.21-21.44 468.11-19.73L468.11-19.73Q468.89-20.12 469.82-20.63 470.75-21.14 471.53-21.78 472.31-22.41 472.84-23.22 473.38-24.02 473.38-25.05ZM509.08-18.26L509.08-18.26Q508.4-18.21 507.91-18.38 507.42-18.55 506.94-18.75L506.94-18.75Q506.5-18.95 506.06-19.12 505.62-19.29 505.08-19.24L505.08-19.24Q504.1-19.19 503.35-18.7 502.59-18.21 501.98-17.48 501.37-16.75 500.93-15.84 500.49-14.94 500.25-14.06L500.25-14.06Q500.1-13.48 500.03-12.28 499.95-11.08 499.95-9.72L499.95-9.72Q499.9-8.3 499.9-7.03 499.9-5.76 499.81-5.03L499.81-5.03Q499.76-4.25 499.56-3.2 499.37-2.15 498.95-1.22 498.54-0.29 497.85 0.34 497.17 0.98 496.1 0.98L496.1 0.98Q495.27 0.98 494.66 0.49 494.04 0 493.63-0.81 493.21-1.61 492.95-2.69 492.68-3.76 492.53-4.88L492.53-4.88Q492.38-6.05 492.31-7.23 492.24-8.4 492.21-9.45 492.19-10.5 492.21-11.38 492.24-12.26 492.24-12.79L492.24-12.79Q492.19-14.5 492.07-16.24 491.95-17.97 491.95-19.68L491.95-19.68Q491.95-20.75 492.04-22.07 492.14-23.39 492.58-24.54 493.02-25.68 493.87-26.46 494.73-27.25 496.24-27.25L496.24-27.25Q497.07-27.25 497.66-26.71 498.24-26.17 498.61-25.39 498.98-24.61 499.17-23.73 499.37-22.85 499.42-22.12L499.42-22.12Q500.59-24.02 502.05-25.22 503.52-26.42 505.86-26.51L505.86-26.51Q507.03-26.56 508.18-26.29 509.33-26.03 510.28-25.42 511.23-24.8 511.84-23.83 512.45-22.85 512.5-21.53L512.5-21.53Q512.6-19.97 511.57-19.14 510.55-18.31 509.08-18.26ZM531.65 1.42L531.65 1.42Q529.16 1.42 527.31 0.1 525.45-1.22 524.18-3.27 522.91-5.32 522.28-7.84 521.64-10.35 521.64-12.79L521.64-12.79Q521.64-15.38 522.28-18.14 522.91-20.9 524.23-23.17 525.55-25.44 527.6-26.88 529.65-28.32 532.48-28.32L532.48-28.32Q535.22-28.32 537.14-26.83 539.07-25.34 540.25-23.12 541.42-20.9 541.91-18.26 542.39-15.63 542.25-13.28L542.25-13.28Q542.1-10.69 541.44-8.06 540.78-5.42 539.51-3.32 538.24-1.22 536.29 0.1 534.34 1.42 531.65 1.42ZM532.14-20.65L532.14-20.65Q531.41-20.65 530.85-19.87 530.28-19.09 529.92-17.97 529.55-16.85 529.36-15.6 529.16-14.36 529.16-13.43L529.16-13.43Q529.16-12.26 529.38-10.89 529.6-9.52 529.99-8.37 530.38-7.23 530.94-6.47 531.5-5.71 532.24-5.71L532.24-5.71Q533.02-5.71 533.58-6.45 534.14-7.18 534.48-8.3 534.83-9.42 534.97-10.77 535.12-12.11 535.12-13.28L535.12-13.28Q535.12-14.36 534.92-15.65 534.73-16.94 534.36-18.07 534-19.19 533.43-19.92 532.87-20.65 532.14-20.65ZM574.92-32.13L574.92-32.13Q574.92-28.56 574.65-25.05 574.38-21.53 574.38-17.97L574.38-17.97Q574.38-15.09 574.56-12.26 574.73-9.42 574.73-6.54L574.73-6.54Q574.73-5.76 574.68-4.66 574.63-3.56 574.36-2.54 574.09-1.51 573.48-0.78 572.87-0.05 571.75-0.05L571.75-0.05Q570.28-0.05 569.33-1.15 568.38-2.25 568.13-3.61L568.13-3.61Q567.21-1.86 565.45-0.63 563.69 0.59 561.64 0.59L561.64 0.59Q559.44 0.59 557.86-0.93 556.27-2.44 555.22-4.59 554.17-6.74 553.66-9.08 553.14-11.43 553.14-13.13L553.14-13.13Q553.14-14.36 553.29-15.92 553.44-17.48 553.8-19.09 554.17-20.7 554.76-22.24 555.34-23.78 556.25-25 557.15-26.22 558.39-26.95 559.64-27.69 561.25-27.69L561.25-27.69Q563.01-27.69 564.62-26.66 566.23-25.63 567.06-24.12L567.06-24.12 567.5-31.88Q567.55-32.81 567.65-34.06 567.74-35.3 568.06-36.43 568.38-37.55 569.06-38.33 569.75-39.11 571.06-39.11L571.06-39.11Q572.48-39.11 573.26-38.43 574.04-37.74 574.41-36.69 574.78-35.64 574.85-34.42 574.92-33.2 574.92-32.13ZM566.96-10.06L566.96-10.45Q566.96-11.57 566.91-12.65 566.87-13.72 566.91-14.84L566.91-14.84Q566.62-15.48 566.23-16.24 565.84-16.99 565.28-17.65 564.72-18.31 564.03-18.75 563.35-19.19 562.57-19.19L562.57-19.19Q561.69-19.19 561.15-18.65 560.62-18.12 560.37-17.36 560.13-16.6 560.05-15.72 559.98-14.84 559.98-14.21L559.98-14.21Q559.98-13.62 560.08-12.48 560.18-11.33 560.44-10.16 560.71-8.98 561.2-8.11 561.69-7.23 562.52-7.23L562.52-7.23Q563.15-7.23 563.79-7.5 564.42-7.76 564.99-8.18 565.55-8.59 566.06-9.11 566.57-9.62 566.96-10.06L566.96-10.06ZM608.67-13.96L608.67-13.96Q608.67-11.28 608.13-8.64 607.6-6.01 606.33-3.93 605.06-1.86 602.93-0.59 600.81 0.68 597.64 0.68L597.64 0.68Q594.51 0.68 592.41-0.56 590.31-1.81 589.07-3.86 587.82-5.91 587.31-8.5 586.8-11.08 586.8-13.77L586.8-13.77Q586.8-16.7 587.48-19.58L587.48-19.58Q587.63-20.36 588.04-21.75 588.46-23.14 589.12-24.49 589.77-25.83 590.63-26.81 591.48-27.78 592.51-27.78L592.51-27.78Q593.49-27.78 594.07-27.25 594.66-26.71 595-25.9 595.34-25.1 595.44-24.19 595.54-23.29 595.54-22.56L595.54-22.56Q595.54-21.44 595.37-20.36 595.19-19.29 595-18.21L595-18.21Q594.8-16.75 594.63-15.28 594.46-13.82 594.46-12.35L594.46-12.35Q594.46-11.62 594.54-10.72 594.61-9.81 594.9-8.98 595.19-8.15 595.73-7.59 596.27-7.03 597.24-7.03L597.24-7.03Q598.51-7.03 599.27-7.71 600.03-8.4 600.39-9.42 600.76-10.45 600.86-11.62 600.96-12.79 600.96-13.77L600.96-13.77Q600.96-15.92 600.66-17.99 600.37-20.07 600.13-22.22L600.13-22.22Q600.08-22.46 600.08-22.9L600.08-22.9Q600.08-23.63 600.32-24.37 600.57-25.1 601-25.68 601.44-26.27 602.08-26.64 602.71-27 603.49-27L603.49-27Q604.57-27 605.4-26.25 606.23-25.49 606.79-24.29 607.35-23.1 607.72-21.61 608.08-20.12 608.3-18.68 608.52-17.24 608.6-15.97 608.67-14.7 608.67-13.96ZM638.9-18.75L638.9-18.75Q638.9-18.51 638.86-18.24 638.81-17.97 638.71-17.72L638.71-17.72Q638.27-16.6 637.34-15.84 636.41-15.09 635.14-15.09L635.14-15.09Q633.24-15.09 632.56-16.99L632.56-16.99Q632.46-17.24 632.46-17.55 632.46-17.87 632.41-18.21L632.41-18.21 632.41-19.63Q632.31-20.31 632.07-20.7 631.82-21.09 631.24-21.09L631.24-21.09Q630.41-21.09 629.65-20.04 628.89-18.99 628.33-17.55 627.77-16.11 627.43-14.6 627.09-13.09 627.09-12.16L627.09-12.16Q627.09-11.43 627.19-10.38 627.28-9.33 627.58-8.35 627.87-7.37 628.38-6.67 628.89-5.96 629.72-5.96L629.72-5.96Q630.55-5.96 631.26-6.47 631.97-6.98 632.65-7.67L632.65-7.67Q633.29-8.25 634.05-8.89 634.8-9.52 635.78-9.52L635.78-9.52Q637-9.52 637.71-8.64 638.42-7.76 638.42-6.64L638.42-6.64Q638.42-4.98 637.54-3.54 636.66-2.1 635.34-1.05 634.02 0 632.41 0.61 630.8 1.22 629.33 1.22L629.33 1.22Q626.7 1.22 624.87-0.1 623.03-1.42 621.91-3.44 620.79-5.47 620.3-7.86 619.81-10.25 619.81-12.4L619.81-12.4Q619.81-14.89 620.5-17.8 621.18-20.7 622.6-23.19 624.01-25.68 626.23-27.34 628.45-29 631.53-29L631.53-29Q633.44-29 634.83-28.17 636.22-27.34 637.12-26 638.03-24.66 638.49-23 638.95-21.34 638.95-19.73L638.95-19.73Q638.95-19.48 638.95-19.24 638.95-18.99 638.9-18.75ZM662.16 1.76L662.16 1.76Q658.69 1.76 656.76 0.85 654.83-0.05 653.88-1.71 652.93-3.37 652.73-5.71 652.54-8.06 652.54-10.94L652.54-10.94Q652.54-13.23 652.68-15.55 652.83-17.87 653.12-20.51L653.12-20.51Q652.44-20.51 652.05-20.48 651.66-20.46 651.41-20.46L651.41-20.46Q649.85-20.46 648.7-21.14 647.56-21.83 647.56-23.24L647.56-23.24Q647.56-24.12 648.21-24.8 648.87-25.49 649.9-25.98 650.92-26.46 652.12-26.76 653.32-27.05 654.39-27.15L654.39-27.15Q654.39-28.52 654.59-30.18 654.78-31.84 655.29-33.28 655.81-34.72 656.69-35.69 657.57-36.67 658.93-36.67L658.93-36.67Q659.71-36.67 660.32-36.21 660.93-35.74 661.32-35.03 661.72-34.33 661.91-33.45 662.11-32.57 662.11-31.74L662.11-31.74Q662.11-30.76 661.96-29.74 661.81-28.71 661.42-27.2L661.42-27.2Q662.25-27.29 662.55-27.32 662.84-27.34 663.08-27.34L663.08-27.34Q663.91-27.34 664.82-27.2 665.72-27.05 666.48-26.71 667.23-26.37 667.72-25.81 668.21-25.24 668.21-24.46L668.21-24.46Q668.21-23.58 667.5-22.9 666.79-22.22 665.72-21.73 664.65-21.24 663.42-20.97 662.2-20.7 661.13-20.61L661.13-20.61Q660.84-18.6 660.71-16.92 660.59-15.23 660.45-13.53L660.45-13.53Q660.35-12.7 660.28-11.84 660.2-10.99 660.2-10.11L660.2-10.11Q660.2-9.47 660.25-8.62 660.3-7.76 660.59-6.98 660.89-6.2 661.52-5.64 662.16-5.08 663.28-5.08L663.28-5.08Q663.96-5.08 664.69-5.2 665.43-5.32 666.16-5.32L666.16-5.32Q667.43-5.32 667.99-4.44 668.55-3.56 668.55-2.2L668.55-2.2Q668.55-1.17 667.94-0.42 667.33 0.34 666.4 0.81 665.48 1.27 664.33 1.51 663.18 1.76 662.16 1.76ZM685.75-2.34L685.75-2.34Q685.75-1.71 685.45-1.2 685.16-0.68 684.7-0.34 684.23 0 683.67 0.2 683.11 0.39 682.53 0.39L682.53 0.39Q681.79 0.39 680.94 0.12 680.08-0.15 679.38-0.63 678.67-1.12 678.18-1.78 677.69-2.44 677.69-3.27L677.69-3.27Q677.69-4.59 678.81-5.25 679.94-5.91 681.11-5.91L681.11-5.91Q681.84-5.91 682.65-5.66 683.45-5.42 684.16-4.96 684.87-4.49 685.31-3.83 685.75-3.17 685.75-2.34Z" opacity="1" transform="matrix(1,0,0,1,0,0)" fill="#ffdc00" class="undefined-text-1" data-fill-palette-color="quaternary" id="text-1"></path></svg></g></svg></g></svg></g></svg></g><g transform="matrix(1,0,0,1,47.93310653897544,0)"><svg viewBox="0 0 117.29222814920624 68.36664578285647" height="68.36664578285647" width="117.29222814920624"><g><svg xmlns="http://www.w3.org/2000/svg" xmlns:xlink="http://www.w3.org/1999/xlink" version="1.1" x="0" y="0" viewBox="0.414 41.95399999999999 99.58576433270153 58.04600000000001" enable-background="new 0 0 100 100" xml:space="preserve" height="68.36664578285647" width="117.29222814920624" class="icon-icon-0" data-fill-palette-color="quaternary" id="icon-0"><path d="M99.984 94.225c-0.005-0.07-0.019-0.141-0.038-0.209-3.613-12.337-8.096-27.231-8.925-28.124-0.638-0.688-1.868-1.485-2.644-1.953 2.823-14.848 2.364-21.445 2.364-21.445l-2.604-0.54L78.85 86.795l2.604 0.54c0 0 3.318-5.45 6.497-21.209 0.589 0.383 1.175 0.803 1.495 1.124 0.812 1.55 5.593 17.409 8.473 27.237 0.021 0.543-0.057 1.826-0.643 2.624-0.64 0.869-2.071 0.779-2.079 0.779-0.028-0.002-0.057-0.004-0.085-0.004H75.855c-2.046-1.779-5.491-4.12-9.487-4.167-2.87-0.033-4.512 1.892-4.512 1.892s-2.834-0.463-4.71 0.366c-0.971 0.428-2.035 1.181-2.947 1.909h-9.547c-0.195-0.903-0.428-1.603-0.393-2.797 0.032-1.125 0.386-3.886 0.41-6.068 0.033-3.238-1.142-9.972-1.142-9.972s1.277-1.144 1.738-1.894c0.436-0.711 0.131-2.277 1.483-2.353 0.921-0.052 3.631 2.404 5.897 1.74 2.003-0.588 0.956-2.763 1.211-3.479 0.256-0.716 1.38-0.614 1.655-1.092 0.271-0.477-0.275-1.228-0.275-1.228s0.923 0.019 1.161-0.339c0.237-0.358-0.155-1.467 0.119-1.842 0.538-0.739 2.404 0.283 2.881-0.683 0.165-0.335 0.205-0.647-0.035-1.329-0.628-1.798-1.986-4.635-1.465-5.83 0.248-0.571 1.158-0.716 1.295-1.67 0.085-0.593-0.354-6.098-0.354-6.098s1.516-0.531 1.172-1.916c-0.492-1.993-4.193-3.743-6.46-5.283-1.278-0.871-5.744-3.718-11.813-1.33-1.394 0.548-2.704 1.958-3.41 2.522-1.194 0.956-3.068 1.295-4.569 4.432-1.668 3.488-1.467 7.979-1.568 9.206-0.103 1.227-0.887 3-0.887 3s1.313 1.398 1.177 2.421c-0.109 0.822-0.869 1.074-0.869 1.074s-0.853-0.29-2.506 0.102c-1.662 0.395-4.784 2.733-8.643 5.062-1.978 1.194-3.215 1.688-6.445 4.399C5.732 83.6 0.414 100 0.414 100l1.483-0.033h93.182c0.047 0.002 0.122 0.005 0.219 0.005 0.697 0 2.562-0.146 3.652-1.628C100.149 96.715 100.004 94.476 99.984 94.225z" fill="#ffdc00" data-fill-palette-color="quaternary"></path></svg></g></svg></g><g></g></svg></g></svg></g></svg></g></svg></g><defs></defs></svg><rect width="342.85155851775386" height="342.85155851775386" fill="none" stroke="none" visibility="hidden"></rect></g></svg></g></svg>