<svg xmlns="http://www.w3.org/2000/svg" version="1.1" xmlns:xlink="http://www.w3.org/1999/xlink" xmlns:svgjs="http://svgjs.dev/svgjs" width="1000" height="1000" viewBox="0 0 1000 1000"><rect width="1000" height="1000" fill="#000000"></rect><g transform="matrix(0.7,0,0,0.7,149.57575902184624,413.3809655628478)"><svg viewBox="0 0 396 98" data-background-color="#331e6d" preserveAspectRatio="xMidYMid meet" height="247" width="1000" xmlns="http://www.w3.org/2000/svg" xmlns:xlink="http://www.w3.org/1999/xlink"><g id="tight-bounds" transform="matrix(1,0,0,1,0.23999943407312685,0.09581062608958746)"><svg viewBox="0 0 395.52 97.80838038119256" height="97.80838038119256" width="395.52"><g><svg viewBox="0 0 538.3890123134922 133.13854497727704" height="97.80838038119256" width="395.52"><g transform="matrix(1,0,0,1,142.86901231349222,18.400479081519478)"><svg viewBox="0 0 395.52 96.33758681423808" height="96.33758681423808" width="395.52"><g id="textblocktransform"><svg viewBox="0 0 395.52 96.33758681423808" height="96.33758681423808" width="395.52" id="textblock"><g><svg viewBox="0 0 395.52 55.477737026921574" height="55.477737026921574" width="395.52"><g transform="matrix(1,0,0,1,0,0)"><svg width="395.52" viewBox="2.5 -35.45000076293945 256.2799987792969 35.95000076293945" height="55.477737026921574" data-palette-color="#ffcf31"><g class="undefined-text-0" data-fill-palette-color="primary" id="text-0"><path d="M2.5-2.3L2.5-2.3 2.5-32.3Q2.5-33.55 3.13-34.27 3.75-35 4.75-35L4.75-35 13.1-35Q21.05-35 25.18-31 29.3-27 29.3-18.4L29.3-18.4Q29.3 0 13.6 0L13.6 0 5.05 0Q2.5 0 2.5-2.3ZM12.6-25.5L12.1-25.5 12.1-10.55Q12.1-9.5 12.25-9.22 12.4-8.95 13.15-8.95L13.15-8.95Q15.9-8.95 17.32-11 18.75-13.05 18.75-17.82 18.75-22.6 17.28-24.05 15.8-25.5 12.6-25.5L12.6-25.5ZM43.1-21.1L49.55-21.1Q50.5-21.1 50.5-17.6L50.5-17.6Q50.5-16.55 50.27-15.13 50.05-13.7 49.45-13.7L49.45-13.7 43.1-13.7 43.1-8.7 52.3-8.7Q53.15-8.7 53.45-6.5L53.45-6.5Q53.6-5.55 53.6-4.48 53.6-3.4 53.3-1.7 53 0 52.3 0L52.3 0 35.2 0Q33.3 0 33.3-1.55L33.3-1.55 33.3-33.7Q33.3-35 34.45-35L34.45-35 52.35-35Q53.4-35 53.4-30.58 53.4-26.15 52.35-26.15L52.35-26.15 43.1-26.15 43.1-21.1ZM64.75-1.05L56-34.35Q56-34.6 58.17-34.83 60.35-35.05 61.75-35.05L61.75-35.05Q67.3-35.05 67.55-33.6L67.55-33.6 71.85-11.6 75.9-33.6Q76.2-35.05 82.1-35.05L82.1-35.05Q83.55-35.05 85.75-34.85 87.95-34.65 87.95-34.4L87.95-34.4 79.1-1.3Q78.9-0.5 76.15-0.25L76.15-0.25Q71.9 0.2 68.42-0.08 64.95-0.35 64.75-1.05L64.75-1.05ZM105.87 0.5Q98.84 0.5 94.42-4.1 89.99-8.7 89.99-17.53 89.99-26.35 94.47-30.9 98.94-35.45 106.02-35.45 113.09-35.45 117.44-30.98 121.79-26.5 121.79-17.43 121.79-8.35 117.34-3.93 112.89 0.5 105.87 0.5ZM105.89-25.85Q103.49-25.85 101.87-23.65 100.24-21.45 100.24-17.48 100.24-13.5 101.79-11.38 103.34-9.25 105.87-9.25 108.39-9.25 109.97-11.4 111.54-13.55 111.54-17.55 111.54-21.55 109.92-23.7 108.29-25.85 105.89-25.85ZM130.14 0.1L130.14 0.1Q125.59 0.1 125.59-0.9L125.59-0.9 125.59-33.3Q125.59-35 127.14-35L127.14-35 135.94-35Q143.34-35 146.62-31.95 149.89-28.9 149.89-23.1L149.89-23.1Q149.89-18.3 146.79-14.3L146.79-14.3Q145.24-12.3 142.24-11.1 139.24-9.9 135.24-9.9L135.24-9.9 135.24-0.95Q135.24-0.35 133.37-0.13 131.49 0.1 130.14 0.1ZM136.29-26.3L135.24-26.3 135.24-18.4 135.89-18.4Q137.64-18.4 138.84-19.5 140.04-20.6 140.04-22.6 140.04-24.6 139.22-25.45 138.39-26.3 136.29-26.3L136.29-26.3ZM155.59-12.2L155.59-12.2Q156.54-11.45 158.86-10.15 161.19-8.85 163.31-8.85 165.44-8.85 165.44-10.5L165.44-10.5Q165.44-11.25 164.84-11.83 164.24-12.4 162.64-13.15 161.04-13.9 160.24-14.33 159.44-14.75 158.11-15.73 156.79-16.7 156.09-17.75L156.09-17.75Q154.09-20.6 154.09-25 154.09-29.4 157.36-32.43 160.64-35.45 165.94-35.45L165.94-35.45Q169.54-35.45 172.59-34.68 175.64-33.9 175.74-32.65L175.74-32.65Q175.74-32.5 175.74-32.35L175.74-32.35Q175.74-30.6 174.64-27.93 173.54-25.25 173.09-24.95L173.09-24.95Q169.89-26.6 167.36-26.6 164.84-26.6 164.84-24.8L164.84-24.8Q164.84-23.7 166.69-22.85L166.69-22.85Q167.09-22.65 167.84-22.3 168.59-21.95 169.56-21.48 170.54-21 171.66-20.28 172.79-19.55 174.09-18.35L174.09-18.35Q176.74-15.85 176.74-11.75L176.74-11.75Q176.74-6.4 173.79-3 170.84 0.4 164.69 0.5L164.69 0.5Q161.69 0.5 159.26 0 156.84-0.5 155.04-1.95 153.24-3.4 153.24-5.45 153.24-7.5 153.99-9.53 154.74-11.55 155.59-12.2ZM180.69-8.6L184.14-8.6 184.14-26.4 180.59-26.4Q179.74-26.4 179.39-28.55L179.39-28.55Q179.24-29.6 179.24-30.7 179.24-31.8 179.39-32.85L179.39-32.85Q179.74-35 180.59-35L180.59-35 197.39-35Q198.24-35 198.54-32.85L198.54-32.85Q198.74-31.8 198.74-30.7 198.74-29.6 198.54-28.55L198.54-28.55Q198.24-26.4 197.39-26.4L197.39-26.4 194.04-26.4 194.04-8.6 197.54-8.6Q198.39-8.6 198.74-6.45L198.74-6.45Q198.94-5.4 198.94-4.3 198.94-3.2 198.74-2.15L198.74-2.15Q198.39 0 197.54 0L197.54 0 180.69 0Q179.84 0 179.54-2.15L179.54-2.15Q179.34-3.2 179.34-4.3 179.34-5.4 179.54-6.45L179.54-6.45Q179.84-8.6 180.69-8.6L180.69-8.6ZM216.58-35.45Q220.23-35.45 223.01-34.43 225.78-33.4 225.78-31.65 225.78-29.9 224.46-27.33 223.13-24.75 222.23-24.75L222.23-24.75Q221.98-24.75 221.66-25.03 221.33-25.3 220.16-25.63 218.98-25.95 218.13-25.95L218.13-25.95Q215.23-25.95 213.46-23.9 211.68-21.85 211.68-17.63 211.68-13.4 213.51-11.35 215.33-9.3 218.13-9.3L218.13-9.3Q219.28-9.3 220.71-9.63 222.13-9.95 222.73-10.55L222.73-10.55Q222.83-10.65 223.13-10.65 223.43-10.65 224.26-9.53 225.08-8.4 225.78-6.58 226.48-4.75 226.48-3.75L226.48-3.75Q226.48-1.8 223.48-0.65 220.48 0.5 216.38 0.5L216.38 0.5Q209.78 0.5 205.53-4.15 201.28-8.8 201.28-17.28 201.28-25.75 205.66-30.6 210.03-35.45 216.58-35.45L216.58-35.45ZM240.33-12.75L240.33-0.7Q240.33 0.05 235.63 0.05L235.63 0.05 232.83-0.1Q230.33-0.3 230.33-0.8L230.33-0.8 230.33-34.35Q230.33-35.2 235.33-35.2 240.33-35.2 240.33-34.35L240.33-34.35 240.33-21.55 246.43-34.35Q246.78-35.05 250.43-35.05L250.43-35.05Q257.08-35.05 257.43-33.9L257.43-33.9Q257.43-33.8 257.38-33.7L257.38-33.7 248.68-18 258.78-4.05Q258.78-3.95 257.83-3.2L257.83-3.2Q255.53-1.2 252.43-0.05L252.43-0.05Q251.48 0.3 250.53 0.3L250.53 0.3 249.33 0.2Q247.73-0.2 246.83-1.85L246.83-1.85 241.13-12.75 240.33-12.75Z" fill="#ffffff" data-fill-palette-color="primary"></path></g></svg></g></svg></g><g transform="matrix(1,0,0,1,0,68.57469927328911)"><svg viewBox="0 0 300.5952 27.76288754094896" height="27.76288754094896" width="300.5952"><g transform="matrix(1,0,0,1,0,0)"><svg width="300.5952" viewBox="2.200000047683716 -33.29999923706055 473.0899963378906 43.69999694824219" height="27.76288754094896" data-palette-color="#ffcf31"><path d="M2.2 0L2.2-0.5 2.45-0.5Q2.8-0.5 3.1-0.8 3.4-1.1 3.63-1.5 3.85-1.9 3.95-2.38 4.05-2.85 4.05-3.25L4.05-3.25 4.05-29.9Q4.05-30.25 3.95-30.7 3.85-31.15 3.65-31.55 3.45-31.95 3.15-32.23 2.85-32.5 2.45-32.5L2.45-32.5 2.2-32.5 2.2-33 11.85-33Q15.8-33 18.95-31.63 22.1-30.25 24.28-27.93 26.45-25.6 27.6-22.6 28.75-19.6 28.75-16.35L28.75-16.35Q28.75-13.3 27.65-10.38 26.55-7.45 24.35-5.15 22.15-2.85 18.85-1.43 15.55 0 11.2 0L11.2 0 2.2 0ZM25.35-15.6L25.35-15.6Q25.35-18.8 24.2-21.65 23.05-24.5 20.98-26.63 18.9-28.75 16.07-30 13.25-31.25 9.95-31.25L9.95-31.25 7.4-31.25 7.4-1.75 10.05-1.75Q12.75-1.75 15.48-2.58 18.2-3.4 20.4-5.13 22.6-6.85 23.98-9.45 25.35-12.05 25.35-15.6ZM46.75-20.4L45.25-17.35Q44.65-18.35 44-18.6 43.35-18.85 42.5-18.85L42.5-18.85Q41.95-18.85 41.32-18.6 40.7-18.35 40.1-17.95 39.5-17.55 38.92-17.07 38.35-16.6 37.95-16.2L37.95-16.2 37.95-3.2Q37.95-2.8 38.05-2.35 38.15-1.9 38.37-1.48 38.6-1.05 38.87-0.78 39.15-0.5 39.55-0.5L39.55-0.5 39.55 0 33.05 0 33.05-0.5Q33.4-0.5 33.7-0.78 34-1.05 34.22-1.48 34.45-1.9 34.55-2.35 34.65-2.8 34.65-3.2L34.65-3.2 34.65-17.15Q34.65-17.85 34.2-18.55 33.75-19.25 32.9-19.45L32.9-19.45 32.9-19.85 37.95-21.35 37.95-18.35Q38.4-18.9 38.9-19.43 39.4-19.95 40.02-20.38 40.65-20.8 41.4-21.08 42.15-21.35 43.15-21.35L43.15-21.35Q43.85-21.35 44.95-21.05 46.05-20.75 46.75-20.4L46.75-20.4ZM70-10.1L52.65-10.1Q52.85-8.35 53.5-6.78 54.15-5.2 55.22-4 56.3-2.8 57.85-2.08 59.4-1.35 61.45-1.35L61.45-1.35Q62.55-1.35 63.77-1.68 65-2 66.05-2.6 67.09-3.2 67.92-4.08 68.75-4.95 69.05-6.05L69.05-6.05 69.5-6.05 69.5-2.3Q69.2-2.3 68.82-2.1 68.45-1.9 67.95-1.6L67.95-1.6Q66.95-1 65.25-0.33 63.55 0.35 60.75 0.35L60.75 0.35Q58.5 0.35 56.47-0.3 54.45-0.95 52.9-2.3 51.35-3.65 50.42-5.75 49.5-7.85 49.5-10.75L49.5-10.75Q49.5-12.6 50.12-14.5 50.75-16.4 52.02-17.93 53.3-19.45 55.3-20.4 57.3-21.35 60.1-21.35L60.1-21.35Q62.6-21.35 64.47-20.5 66.34-19.65 67.57-18.15 68.8-16.65 69.4-14.6 70-12.55 70-10.1L70-10.1ZM59.9-19.7L59.9-19.7Q58.15-19.7 56.87-19 55.6-18.3 54.7-17.2 53.8-16.1 53.3-14.7 52.8-13.3 52.65-11.9L52.65-11.9 66.9-11.9Q66.84-13.35 66.37-14.75 65.9-16.15 65.05-17.25 64.2-18.35 62.9-19.03 61.6-19.7 59.9-19.7ZM90.84 0L85.99 0 85.99-2.55 85.74-2.3Q84.49-1.05 82.87-0.35 81.24 0.35 78.94 0.35L78.94 0.35Q77.19 0.35 75.94-0.05 74.69-0.45 73.89-1.18 73.09-1.9 72.72-2.85 72.34-3.8 72.34-4.85L72.34-4.85Q72.34-6.55 73.27-7.85 74.19-9.15 75.94-10.15 77.69-11.15 80.22-11.98 82.74-12.8 85.99-13.6L85.99-13.6Q85.89-15.55 85.19-16.75 84.49-17.95 83.54-18.63 82.59-19.3 81.54-19.53 80.49-19.75 79.74-19.75L79.74-19.75Q78.44-19.75 77.47-19.35 76.49-18.95 75.77-18.32 75.04-17.7 74.54-16.98 74.04-16.25 73.74-15.6L73.74-15.6 73.29-15.6 73.29-19.25Q73.69-19.3 74.04-19.5 74.39-19.7 74.89-19.9L74.89-19.9Q75.64-20.2 76.94-20.78 78.24-21.35 80.59-21.35L80.59-21.35Q83.34-21.35 85.04-20.65 86.74-19.95 87.67-18.8 88.59-17.65 88.89-16.18 89.19-14.7 89.19-13.15L89.19-13.15 89.19-3.25Q89.19-2.25 89.64-1.38 90.09-0.5 90.84-0.5L90.84-0.5 90.84 0ZM85.44-4.15L85.99-4.75 85.99-11.9 85.49-11.8Q84.29-11.5 82.57-11 80.84-10.5 79.29-9.7 77.74-8.9 76.64-7.8 75.54-6.7 75.54-5.25L75.54-5.25Q75.54-3.65 76.84-2.6 78.14-1.55 80.24-1.55L80.24-1.55Q81.89-1.55 83.14-2.27 84.39-3 85.44-4.15L85.44-4.15ZM127.64-12.6L127.64-3.25Q127.64-2.85 127.74-2.38 127.84-1.9 128.04-1.5 128.24-1.1 128.52-0.8 128.79-0.5 129.19-0.5L129.19-0.5 129.19 0 122.69 0 122.69-0.5Q123.09-0.5 123.39-0.8 123.69-1.1 123.92-1.5 124.14-1.9 124.24-2.38 124.34-2.85 124.34-3.25L124.34-3.25 124.34-14.05Q124.34-15.2 124.02-16.25 123.69-17.3 123.04-18.07 122.39-18.85 121.44-19.33 120.49-19.8 119.29-19.8L119.29-19.8Q117.94-19.8 116.97-19.18 115.99-18.55 115.37-17.65 114.74-16.75 114.44-15.83 114.14-14.9 114.14-14.3L114.14-14.3 114.14-3.25Q114.14-2.85 114.24-2.38 114.34-1.9 114.57-1.5 114.79-1.1 115.07-0.8 115.34-0.5 115.74-0.5L115.74-0.5 115.74 0 109.29 0 109.29-0.5Q109.64-0.5 109.94-0.8 110.24-1.1 110.47-1.5 110.69-1.9 110.79-2.38 110.89-2.85 110.89-3.25L110.89-3.25 110.89-14.35Q110.89-15.55 110.47-16.57 110.04-17.6 109.32-18.3 108.59-19 107.67-19.4 106.74-19.8 105.79-19.8L105.79-19.8Q104.49-19.8 103.52-19.3 102.54-18.8 101.92-18.05 101.29-17.3 100.97-16.43 100.64-15.55 100.64-14.75L100.64-14.75 100.64-3.25Q100.64-2.85 100.74-2.38 100.84-1.9 101.07-1.5 101.29-1.1 101.57-0.8 101.84-0.5 102.24-0.5L102.24-0.5 102.24 0 95.79 0 95.79-0.5Q96.14-0.5 96.44-0.8 96.74-1.1 96.97-1.5 97.19-1.9 97.29-2.38 97.39-2.85 97.39-3.25L97.39-3.25 97.39-16.6Q97.39-17 97.34-17.5 97.29-18 97.14-18.45 96.99-18.9 96.64-19.2 96.29-19.5 95.69-19.5L95.69-19.5 95.69-19.95 100.64-21.6 100.64-19.05Q101.39-19.9 102.72-20.7 104.04-21.5 106.19-21.5L106.19-21.5Q107.59-21.5 108.69-21.1 109.79-20.7 110.62-20.08 111.44-19.45 112.04-18.65 112.64-17.85 113.04-17.1L113.04-17.1Q113.44-17.85 113.99-18.63 114.54-19.4 115.32-20.05 116.09-20.7 117.17-21.1 118.24-21.5 119.69-21.5L119.69-21.5Q122.49-21.5 124.09-20.5 125.69-19.5 126.47-18.1 127.24-16.7 127.44-15.18 127.64-13.65 127.64-12.6L127.64-12.6ZM134.64-2.15L134.64-2.15Q134.64-3.15 135.31-3.85 135.99-4.55 136.99-4.55L136.99-4.55Q137.99-4.55 138.69-3.85 139.39-3.15 139.39-2.15L139.39-2.15Q139.39-1.15 138.69-0.48 137.99 0.2 136.99 0.2L136.99 0.2Q135.99 0.2 135.31-0.48 134.64-1.15 134.64-2.15ZM157.28-32.5L157.28-33 164.38-33Q169.93-33 172.81-30.88 175.68-28.75 175.68-24.85L175.68-24.85Q175.68-22.75 174.68-21.1 173.68-19.45 172.06-18.32 170.43-17.2 168.41-16.6 166.38-16 164.38-16L164.38-16 162.48-16 162.48-3.25Q162.48-2.85 162.58-2.38 162.68-1.9 162.91-1.5 163.13-1.1 163.41-0.8 163.68-0.5 164.08-0.5L164.08-0.5 164.33-0.5 164.33 0 157.28 0 157.28-0.5 157.53-0.5Q157.88-0.5 158.18-0.8 158.48-1.1 158.68-1.5 158.88-1.9 158.98-2.38 159.08-2.85 159.08-3.25L159.08-3.25 159.08-29.9Q159.08-30.6 158.68-31.5 158.28-32.4 157.53-32.5L157.53-32.5 157.28-32.5ZM163.18-31.25L162.48-31.25 162.48-17.75 163.98-17.75Q165.98-17.75 167.56-18.3 169.13-18.85 170.18-19.75 171.23-20.65 171.78-21.8 172.33-22.95 172.33-24.15L172.33-24.15Q172.33-25.6 171.86-26.88 171.38-28.15 170.31-29.13 169.23-30.1 167.48-30.68 165.73-31.25 163.18-31.25L163.18-31.25ZM193.63-20.4L192.13-17.35Q191.53-18.35 190.88-18.6 190.23-18.85 189.38-18.85L189.38-18.85Q188.83-18.85 188.21-18.6 187.58-18.35 186.98-17.95 186.38-17.55 185.81-17.07 185.23-16.6 184.83-16.2L184.83-16.2 184.83-3.2Q184.83-2.8 184.93-2.35 185.03-1.9 185.26-1.48 185.48-1.05 185.76-0.78 186.03-0.5 186.43-0.5L186.43-0.5 186.43 0 179.93 0 179.93-0.5Q180.28-0.5 180.58-0.78 180.88-1.05 181.11-1.48 181.33-1.9 181.43-2.35 181.53-2.8 181.53-3.2L181.53-3.2 181.53-17.15Q181.53-17.85 181.08-18.55 180.63-19.25 179.78-19.45L179.78-19.45 179.78-19.85 184.83-21.35 184.83-18.35Q185.28-18.9 185.78-19.43 186.28-19.95 186.91-20.38 187.53-20.8 188.28-21.08 189.03-21.35 190.03-21.35L190.03-21.35Q190.73-21.35 191.83-21.05 192.93-20.75 193.63-20.4L193.63-20.4ZM207.28 0.35L207.28 0.35Q204.78 0.35 202.78-0.48 200.78-1.3 199.35-2.73 197.93-4.15 197.15-6.1 196.38-8.05 196.38-10.35L196.38-10.35Q196.38-12.8 197.23-14.83 198.08-16.85 199.58-18.3 201.08-19.75 203.13-20.55 205.18-21.35 207.58-21.35L207.58-21.35Q209.98-21.35 211.98-20.58 213.98-19.8 215.43-18.4 216.88-17 217.68-15.08 218.48-13.15 218.48-10.85L218.48-10.85Q218.48-8.7 217.75-6.68 217.03-4.65 215.6-3.1 214.18-1.55 212.1-0.6 210.03 0.35 207.28 0.35ZM206.98-19.7L206.98-19.7Q205.18-19.6 203.8-18.82 202.43-18.05 201.5-16.82 200.58-15.6 200.1-14.05 199.63-12.5 199.63-10.9L199.63-10.9Q199.63-9.05 200.2-7.33 200.78-5.6 201.85-4.25 202.93-2.9 204.43-2.1 205.93-1.3 207.78-1.3L207.78-1.3Q209.63-1.3 211.05-2.1 212.48-2.9 213.43-4.17 214.38-5.45 214.85-7.05 215.33-8.65 215.33-10.25L215.33-10.25Q215.33-11.9 214.83-13.58 214.33-15.25 213.28-16.63 212.23-18 210.65-18.85 209.08-19.7 206.98-19.7ZM223.28-19.95L228.23-21.55 228.23-1.05Q228.23 0.5 227.85 1.8 227.48 3.1 226.88 4.2 226.28 5.3 225.53 6.18 224.78 7.05 223.98 7.75L223.98 7.75Q222.08 9.4 219.73 10.4L219.73 10.4 219.53 9.95Q221.03 9 222.23 7.5L222.23 7.5Q223.23 6.25 224.1 4.33 224.98 2.4 224.98-0.3L224.98-0.3 224.98-17.05Q224.98-17.9 224.73-18.68 224.48-19.45 223.28-19.5L223.28-19.5 223.28-19.95ZM223.83-26.4L223.83-26.4Q223.83-27.4 224.53-28.1 225.23-28.8 226.23-28.8L226.23-28.8Q227.23-28.8 227.9-28.1 228.58-27.4 228.58-26.4L228.58-26.4Q228.58-25.4 227.9-24.75 227.23-24.1 226.23-24.1L226.23-24.1Q225.23-24.1 224.53-24.75 223.83-25.4 223.83-26.4ZM253.47-10.1L236.12-10.1Q236.32-8.35 236.97-6.78 237.62-5.2 238.7-4 239.77-2.8 241.32-2.08 242.87-1.35 244.92-1.35L244.92-1.35Q246.02-1.35 247.25-1.68 248.47-2 249.52-2.6 250.57-3.2 251.4-4.08 252.22-4.95 252.52-6.05L252.52-6.05 252.97-6.05 252.97-2.3Q252.67-2.3 252.3-2.1 251.92-1.9 251.42-1.6L251.42-1.6Q250.42-1 248.72-0.33 247.02 0.35 244.22 0.35L244.22 0.35Q241.97 0.35 239.95-0.3 237.92-0.95 236.37-2.3 234.82-3.65 233.9-5.75 232.97-7.85 232.97-10.75L232.97-10.75Q232.97-12.6 233.6-14.5 234.22-16.4 235.5-17.93 236.77-19.45 238.77-20.4 240.77-21.35 243.57-21.35L243.57-21.35Q246.07-21.35 247.95-20.5 249.82-19.65 251.05-18.15 252.27-16.65 252.87-14.6 253.47-12.55 253.47-10.1L253.47-10.1ZM243.37-19.7L243.37-19.7Q241.62-19.7 240.35-19 239.07-18.3 238.17-17.2 237.27-16.1 236.77-14.7 236.27-13.3 236.12-11.9L236.12-11.9 250.37-11.9Q250.32-13.35 249.85-14.75 249.37-16.15 248.52-17.25 247.67-18.35 246.37-19.03 245.07-19.7 243.37-19.7ZM276.07-5.7L276.07-1.8Q275.67-1.8 275.32-1.63 274.97-1.45 274.52-1.2L274.52-1.2Q273.67-0.7 272.37-0.18 271.07 0.35 268.97 0.35L268.97 0.35Q266.42 0.35 264.25-0.48 262.07-1.3 260.5-2.78 258.92-4.25 258.05-6.23 257.17-8.2 257.17-10.5L257.17-10.5Q257.17-12.65 257.95-14.6 258.72-16.55 260.17-18.05 261.62-19.55 263.75-20.45 265.87-21.35 268.57-21.35L268.57-21.35Q270.42-21.35 271.57-20.93 272.72-20.5 273.52-20.1L273.52-20.1Q273.97-19.85 274.4-19.7 274.82-19.55 275.27-19.55L275.27-19.55 275.27-15.75 274.77-15.75Q274.52-16.7 273.87-17.43 273.22-18.15 272.37-18.65 271.52-19.15 270.52-19.4 269.52-19.65 268.57-19.65L268.57-19.65Q266.52-19.65 264.97-18.93 263.42-18.2 262.42-17.03 261.42-15.85 260.92-14.35 260.42-12.85 260.42-11.25L260.42-11.25Q260.42-9.4 261.02-7.63 261.62-5.85 262.75-4.45 263.87-3.05 265.47-2.2 267.07-1.35 269.07-1.35L269.07-1.35Q270.47-1.35 271.65-1.75 272.82-2.15 273.65-2.8 274.47-3.45 274.97-4.23 275.47-5 275.57-5.7L275.57-5.7 276.07-5.7ZM289.92-19.3L284.32-19.3 284.32-7.25Q284.32-5.95 284.37-4.9 284.42-3.85 284.62-3.15 284.82-2.45 285.22-2.08 285.62-1.7 286.32-1.7L286.32-1.7Q287.37-1.7 288.29-2.7 289.22-3.7 289.47-5.1L289.47-5.1 289.92-5.1 289.92-1.45Q289.47-1.45 289.17-1.15L289.17-1.15Q288.77-0.8 288.04-0.4 287.32 0 285.87 0L285.87 0Q284.07 0 283.07-0.7 282.07-1.4 281.62-2.55 281.17-3.7 281.09-5.1 281.02-6.5 281.02-7.95L281.02-7.95 281.02-19.3 278.22-19.3 278.22-21 281.02-21 281.02-25.45Q281.02-26.3 280.79-27.03 280.57-27.75 279.32-27.8L279.32-27.8 279.32-28.3 284.32-29.9 284.32-21 289.92-21 289.92-19.3ZM294.02-2.15L294.02-2.15Q294.02-3.15 294.69-3.85 295.37-4.55 296.37-4.55L296.37-4.55Q297.37-4.55 298.06-3.85 298.77-3.15 298.77-2.15L298.77-2.15Q298.77-1.15 298.06-0.48 297.37 0.2 296.37 0.2L296.37 0.2Q295.37 0.2 294.69-0.48 294.02-1.15 294.02-2.15ZM316.66-32.5L316.66-33 323.76-33Q329.31-33 332.19-30.88 335.06-28.75 335.06-24.85L335.06-24.85Q335.06-22.75 334.06-21.1 333.06-19.45 331.44-18.32 329.81-17.2 327.79-16.6 325.76-16 323.76-16L323.76-16 321.86-16 321.86-3.25Q321.86-2.85 321.96-2.38 322.06-1.9 322.29-1.5 322.51-1.1 322.79-0.8 323.06-0.5 323.46-0.5L323.46-0.5 323.71-0.5 323.71 0 316.66 0 316.66-0.5 316.91-0.5Q317.26-0.5 317.56-0.8 317.86-1.1 318.06-1.5 318.26-1.9 318.36-2.38 318.46-2.85 318.46-3.25L318.46-3.25 318.46-29.9Q318.46-30.6 318.06-31.5 317.66-32.4 316.91-32.5L316.91-32.5 316.66-32.5ZM322.56-31.25L321.86-31.25 321.86-17.75 323.36-17.75Q325.36-17.75 326.94-18.3 328.51-18.85 329.56-19.75 330.61-20.65 331.16-21.8 331.71-22.95 331.71-24.15L331.71-24.15Q331.71-25.6 331.24-26.88 330.76-28.15 329.69-29.13 328.61-30.1 326.86-30.68 325.11-31.25 322.56-31.25L322.56-31.25ZM353.01-20.4L351.51-17.35Q350.91-18.35 350.26-18.6 349.61-18.85 348.76-18.85L348.76-18.85Q348.21-18.85 347.58-18.6 346.96-18.35 346.36-17.95 345.76-17.55 345.18-17.07 344.61-16.6 344.21-16.2L344.21-16.2 344.21-3.2Q344.21-2.8 344.31-2.35 344.41-1.9 344.63-1.48 344.86-1.05 345.13-0.78 345.41-0.5 345.81-0.5L345.81-0.5 345.81 0 339.31 0 339.31-0.5Q339.66-0.5 339.96-0.78 340.26-1.05 340.48-1.48 340.71-1.9 340.81-2.35 340.91-2.8 340.91-3.2L340.91-3.2 340.91-17.15Q340.91-17.85 340.46-18.55 340.01-19.25 339.16-19.45L339.16-19.45 339.16-19.85 344.21-21.35 344.21-18.35Q344.66-18.9 345.16-19.43 345.66-19.95 346.28-20.38 346.91-20.8 347.66-21.08 348.41-21.35 349.41-21.35L349.41-21.35Q350.11-21.35 351.21-21.05 352.31-20.75 353.01-20.4L353.01-20.4ZM366.66 0.35L366.66 0.35Q364.16 0.35 362.16-0.48 360.16-1.3 358.73-2.73 357.31-4.15 356.53-6.1 355.76-8.05 355.76-10.35L355.76-10.35Q355.76-12.8 356.61-14.83 357.46-16.85 358.96-18.3 360.46-19.75 362.51-20.55 364.56-21.35 366.96-21.35L366.96-21.35Q369.36-21.35 371.36-20.58 373.36-19.8 374.81-18.4 376.26-17 377.06-15.08 377.86-13.15 377.86-10.85L377.86-10.85Q377.86-8.7 377.13-6.68 376.41-4.65 374.98-3.1 373.56-1.55 371.48-0.6 369.41 0.35 366.66 0.35ZM366.36-19.7L366.36-19.7Q364.56-19.6 363.18-18.82 361.81-18.05 360.88-16.82 359.96-15.6 359.48-14.05 359.01-12.5 359.01-10.9L359.01-10.9Q359.01-9.05 359.58-7.33 360.16-5.6 361.23-4.25 362.31-2.9 363.81-2.1 365.31-1.3 367.16-1.3L367.16-1.3Q369.01-1.3 370.43-2.1 371.86-2.9 372.81-4.17 373.76-5.45 374.23-7.05 374.71-8.65 374.71-10.25L374.71-10.25Q374.71-11.9 374.21-13.58 373.71-15.25 372.66-16.63 371.61-18 370.03-18.85 368.46-19.7 366.36-19.7ZM403.1 0L398.2 0 398.2-2.2Q397.35-1.25 395.93-0.45 394.5 0.35 392.35 0.35L392.35 0.35Q389.7 0.35 387.73-0.58 385.75-1.5 384.45-3 383.15-4.5 382.53-6.43 381.9-8.35 381.9-10.4L381.9-10.4Q381.9-12.4 382.55-14.38 383.2-16.35 384.5-17.9 385.8-19.45 387.75-20.4 389.7-21.35 392.25-21.35L392.25-21.35Q393.95-21.35 395.6-20.73 397.25-20.1 398.2-19.1L398.2-19.1 398.2-28.85Q398.2-29.7 397.95-30.45 397.7-31.2 396.5-31.25L396.5-31.25 396.5-31.75 401.5-33.3 401.5-3.25Q401.5-2.85 401.6-2.38 401.7-1.9 401.9-1.5 402.1-1.1 402.4-0.8 402.7-0.5 403.1-0.5L403.1-0.5 403.1 0ZM392.7-1.3L392.7-1.3Q393.75-1.3 394.75-1.73 395.75-2.15 396.5-2.88 397.25-3.6 397.73-4.58 398.2-5.55 398.2-6.7L398.2-6.7 398.2-13.55Q398.2-14.95 397.6-16.07 397-17.2 396.1-18 395.2-18.8 394.13-19.23 393.05-19.65 392.05-19.65L392.05-19.65Q390.4-19.65 389.1-18.88 387.8-18.1 386.9-16.88 386-15.65 385.55-14.13 385.1-12.6 385.1-11.1L385.1-11.1Q385.1-9.35 385.6-7.63 386.1-5.9 387.08-4.53 388.05-3.15 389.45-2.25 390.85-1.35 392.7-1.3ZM427.75-21.55L427.75-3.25Q427.75-2.9 427.85-2.43 427.95-1.95 428.13-1.53 428.3-1.1 428.6-0.8 428.9-0.5 429.3-0.5L429.3-0.5 429.3 0 424.45 0 424.45-2.75Q423.7-1.65 422.25-0.6 420.8 0.45 418.5 0.45L418.5 0.45Q415.6 0.45 413.9-0.55 412.2-1.55 411.3-3.1 410.4-4.65 410.15-6.48 409.9-8.3 409.9-9.9L409.9-9.9 409.9-17.05Q409.9-17.5 409.88-17.93 409.85-18.35 409.68-18.7 409.5-19.05 409.15-19.28 408.8-19.5 408.15-19.5L408.15-19.5 408.15-19.95 413.2-21.55 413.2-8.8Q413.2-5 414.85-3.2 416.5-1.4 418.9-1.4L418.9-1.4Q420.2-1.4 421.23-1.98 422.25-2.55 422.98-3.35 423.7-4.15 424.08-5 424.45-5.85 424.45-6.4L424.45-6.4 424.45-17.05Q424.45-17.5 424.43-17.93 424.4-18.35 424.23-18.7 424.05-19.05 423.7-19.28 423.35-19.5 422.7-19.5L422.7-19.5 422.7-19.95 427.75-21.55ZM452.6-5.7L452.6-1.8Q452.2-1.8 451.85-1.63 451.5-1.45 451.05-1.2L451.05-1.2Q450.2-0.7 448.9-0.18 447.6 0.35 445.5 0.35L445.5 0.35Q442.95 0.35 440.77-0.48 438.6-1.3 437.02-2.78 435.45-4.25 434.57-6.23 433.7-8.2 433.7-10.5L433.7-10.5Q433.7-12.65 434.47-14.6 435.25-16.55 436.7-18.05 438.15-19.55 440.27-20.45 442.4-21.35 445.1-21.35L445.1-21.35Q446.95-21.35 448.1-20.93 449.25-20.5 450.05-20.1L450.05-20.1Q450.5-19.85 450.92-19.7 451.35-19.55 451.8-19.55L451.8-19.55 451.8-15.75 451.3-15.75Q451.05-16.7 450.4-17.43 449.75-18.15 448.9-18.65 448.05-19.15 447.05-19.4 446.05-19.65 445.1-19.65L445.1-19.65Q443.05-19.65 441.5-18.93 439.95-18.2 438.95-17.03 437.95-15.85 437.45-14.35 436.95-12.85 436.95-11.25L436.95-11.25Q436.95-9.4 437.55-7.63 438.15-5.85 439.27-4.45 440.4-3.05 442-2.2 443.6-1.35 445.6-1.35L445.6-1.35Q447-1.35 448.17-1.75 449.35-2.15 450.17-2.8 451-3.45 451.5-4.23 452-5 452.1-5.7L452.1-5.7 452.6-5.7ZM466.45-19.3L460.85-19.3 460.85-7.25Q460.85-5.95 460.9-4.9 460.95-3.85 461.15-3.15 461.35-2.45 461.75-2.08 462.15-1.7 462.85-1.7L462.85-1.7Q463.9-1.7 464.82-2.7 465.75-3.7 466-5.1L466-5.1 466.45-5.1 466.45-1.45Q466-1.45 465.7-1.15L465.7-1.15Q465.3-0.8 464.57-0.4 463.85 0 462.4 0L462.4 0Q460.6 0 459.6-0.7 458.6-1.4 458.15-2.55 457.7-3.7 457.62-5.1 457.55-6.5 457.55-7.95L457.55-7.95 457.55-19.3 454.75-19.3 454.75-21 457.55-21 457.55-25.45Q457.55-26.3 457.32-27.03 457.1-27.75 455.85-27.8L455.85-27.8 455.85-28.3 460.85-29.9 460.85-21 466.45-21 466.45-19.3ZM470.54-2.15L470.54-2.15Q470.54-3.15 471.22-3.85 471.89-4.55 472.89-4.55L472.89-4.55Q473.89-4.55 474.59-3.85 475.29-3.15 475.29-2.15L475.29-2.15Q475.29-1.15 474.59-0.48 473.89 0.2 472.89 0.2L472.89 0.2Q471.89 0.2 471.22-0.48 470.54-1.15 470.54-2.15Z" opacity="1" transform="matrix(1,0,0,1,0,0)" fill="#ffffff" class="undefined-text-1" data-fill-palette-color="secondary" id="text-1"></path></svg></g></svg></g></svg></g></svg></g><g><svg viewBox="0 0 129.7720500671247 133.13854497727704" height="133.13854497727704" width="129.7720500671247"><g><svg xmlns="http://www.w3.org/2000/svg" xmlns:xlink="http://www.w3.org/1999/xlink" version="1.1" x="0" y="0" viewBox="5.637740612030029 5.999001502990723 87.72526550292969 90.0009994506836" enable-background="new 0 0 100 100" xml:space="preserve" height="133.13854497727704" width="129.7720500671247" class="icon-icon-0" data-fill-palette-color="accent" id="icon-0"><g fill="#ffcf31" data-fill-palette-color="accent"><path d="M58.203 96H40.796c-2.211 0-4.011-1.8-4.011-4.011v-7.236c0-0.358-0.744-0.91-1.94-1.438l-0.194-0.09c-2.285-1.021-4.509-2.359-6.563-3.955-0.524-0.407-1.227-0.518-1.633-0.281l-6.016 3.473c-2.092 1.207-4.493 0.42-5.558-1.424L6.177 65.962c-0.536-0.928-0.678-2.008-0.401-3.043 0.278-1.036 0.941-1.901 1.87-2.437l0.938 1.286L7.787 60.4l0.414-0.238 0.912 1.301L8.32 60.094l4.765-2.75c1.446-0.84 1.446-0.84 1.32-1.739-0.201-1.366-0.29-2.776-0.29-4.503v-0.203c0-1.726 0.089-3.136 0.281-4.435l0.013-0.094c0.122-0.874 0.122-0.874-1.377-1.743l-4.709-2.719 0.696-1.425-0.79 1.371-0.44-0.254 0.699-1.423-0.843 1.34c-1.914-1.105-2.573-3.563-1.467-5.478l8.704-15.076c0.714-1.238 2.046-2.006 3.476-2.006 0.701 0 1.394 0.186 2.003 0.537l6.111 3.528c0.409 0.223 1.1 0.11 1.617-0.292 2.052-1.594 4.277-2.933 6.612-3.979l0.145-0.066c1.196-0.528 1.94-1.079 1.94-1.438v-7.236c0-2.212 1.8-4.012 4.011-4.012h17.407c2.212 0 4.011 1.8 4.011 4.012v7.236c0 0.358 0.745 0.909 1.942 1.438l0.171 0.079c2.323 1.042 4.538 2.376 6.586 3.966 0.516 0.401 1.205 0.513 1.616 0.292l6.083-3.512c2.022-1.147 4.446-0.383 5.508 1.451l8.703 15.077c1.104 1.916 0.446 4.373-1.469 5.479l-4.01 2.316-0.901-1.308 0.794 1.369-1.223 0.707c-1.544 0.895-1.544 0.895-1.418 1.795l0.016 0.116c0.188 1.314 0.272 2.698 0.272 4.387L84.884 51l0.001 0.102c0 1.72-0.088 3.123-0.277 4.413l-0.001 0.016c-0.136 0.975-0.136 0.975 1.362 1.844l1.269 0.732-0.692 1.426 0.794-1.368 3.341 1.929-0.698 1.425 0.79-1.372 0.605 0.351c0.905 0.521 1.569 1.387 1.846 2.423 0.278 1.035 0.136 2.115-0.399 3.043L84.12 81.037c-0.715 1.238-2.048 2.006-3.478 2.006-0.701 0-1.394-0.186-2.003-0.537l-6.084-3.513c-0.436-0.252-1.119-0.13-1.642 0.275-2.041 1.585-4.247 2.915-6.558 3.954l-0.227 0.103c-1.171 0.518-1.916 1.069-1.916 1.428v7.236C62.214 94.2 60.415 96 58.203 96zM36.123 80.419c1.643 0.727 3.827 1.965 3.827 4.334v7.236c0 0.466 0.379 0.847 0.846 0.847h17.407c0.467 0 0.848-0.381 0.848-0.847v-7.236c0-2.369 2.185-3.607 3.827-4.334l0.129-0.06c2.102-0.939 4.107-2.147 5.965-3.589 1.52-1.182 3.647-1.392 5.153-0.525l2.512 1.449-0.679 1.437 0.785-1.373 1.374 0.793-0.645 1.454 0.791-1.37 1.941 1.121c0.173 0.092 0.303 0.123 0.438 0.123 0.304 0 0.586-0.163 0.736-0.425l8.703-15.074c0.113-0.196 0.144-0.424 0.084-0.643-0.058-0.218-0.197-0.4-0.394-0.514l-5.343-3.085c-2.381-1.38-3.312-2.363-2.978-4.897l0.016-0.122c0.174-1.184 0.253-2.446 0.253-4.018L81.72 51l0.001-0.102c0-1.571-0.079-2.834-0.247-3.974l-0.018-0.145c-0.353-2.541 0.576-3.529 2.926-4.891l1.577-0.911 0.891 1.312-0.792-1.369 3.04-1.755 0.884 1.316-0.789-1.371 0.523-0.303c0.46-0.266 0.6-0.785 0.366-1.19l-8.703-15.075c-0.227-0.393-0.754-0.542-1.157-0.31l-3.479 2.008-0.84-1.342 0.75 1.394-2.604 1.5v0c-1.617 0.865-3.599 0.585-5.077-0.565-1.854-1.439-3.859-2.646-5.96-3.586l-0.085-0.041c-1.696-0.75-3.876-1.988-3.876-4.354v-7.236c0-0.467-0.381-0.847-0.848-0.847H40.796c-0.467 0-0.846 0.379-0.846 0.847v7.236c0 2.369-2.184 3.607-3.827 4.333l-0.75-1.397 0.655 1.44c-2.139 0.958-4.146 2.166-5.999 3.605-1.52 1.182-3.648 1.392-5.153 0.526l-2.513-1.451 0.679-1.436-0.785 1.374-3.413-1.971c-0.197-0.114-0.338-0.152-0.487-0.152-0.303 0-0.584 0.163-0.735 0.424L8.917 37.62c-0.113 0.196-0.143 0.425-0.084 0.643s0.199 0.4 0.394 0.514l5.34 3.083c2.408 1.396 3.334 2.386 2.971 4.977l-0.014 0.099c-0.167 1.133-0.245 2.396-0.245 3.964l0.001 0.125c-0.001 1.646 0.077 2.909 0.245 4.052l0.014 0.107c0.362 2.573-0.565 3.562-2.921 4.929L9.285 63.19c-0.253 0.146-0.393 0.329-0.452 0.547-0.059 0.219-0.029 0.446 0.084 0.642l8.705 15.076c0.228 0.396 0.756 0.541 1.157 0.311l3.479-2.009 0.841 1.341-0.73-1.405 2.578-1.485c0.553-0.32 1.282-0.511 2.039-0.511 1.072 0 2.153 0.382 3.044 1.074 1.844 1.434 3.839 2.636 5.931 3.574l0.087 0.041-0.129 0.271-0.434 1.211L36.123 80.419z" fill="#ffffff" data-fill-palette-color="accent"></path></g><g fill="#ffcf31" data-fill-palette-color="accent"><path d="M49.5 78.996c-15.382 0-27.896-12.513-27.896-27.895 0-15.382 12.514-27.896 27.896-27.896s27.896 12.514 27.896 27.896C77.396 66.483 64.882 78.996 49.5 78.996zM49.5 26.37c-13.637 0-24.731 11.095-24.731 24.732 0 13.637 11.094 24.731 24.731 24.731 13.638 0 24.732-11.095 24.732-24.731C74.232 37.464 63.138 26.37 49.5 26.37z" fill="#ffffff" data-fill-palette-color="accent"></path></g><path fill-rule="evenodd" clip-rule="evenodd" d="M60.46 62.594l-2.454-2.454 8.588-8.587-8.588-8.589 2.454-2.454 11.042 11.043L60.46 62.594zM44.735 61.963l7.537-22.557h3.471l-7.537 22.557H44.735zM39.529 61.726L28.487 50.685l11.042-11.042 2.454 2.454-8.588 8.588 8.588 8.588L39.529 61.726z" fill="#ffffff" data-fill-palette-color="accent"></path></svg></g></svg></g></svg></g><defs></defs></svg><rect width="395.52" height="97.80838038119256" fill="none" stroke="none" visibility="hidden"></rect></g></svg></g></svg>